<svg width="235" height="199" viewBox="0 0 235 199" fill="none" xmlns="http://www.w3.org/2000/svg">
<rect x="1.28171" y="68.6758" width="197.047" height="137" rx="19" transform="rotate(-20 1.28171 68.6758)" fill="white" stroke="#DFDFDF" stroke-width="2"/>
<rect x="25.5392" y="81.1304" width="157.577" height="40" rx="9" transform="rotate(-20 25.5392 81.1304)" fill="#B2FF64" stroke="#E0E0E0" stroke-width="2"/>
<path d="M53.6129 86.0643L40.9586 90.2894C40.4076 90.4734 40.1898 91.1543 40.4723 91.8102L43.7818 99.4951C44.0643 100.151 44.74 100.534 45.2911 100.35L57.9454 96.1245C58.4964 95.9405 58.7142 95.2596 58.4317 94.6037L55.1222 86.9188C54.8397 86.2629 54.164 85.8803 53.6129 86.0643Z" stroke="#1A1A23" stroke-width="2" stroke-linecap="round" stroke-linejoin="round"/>
<path d="M41.1838 94.1801L56.1783 89.1641" stroke="#1A1A23" stroke-width="2" stroke-linecap="round" stroke-linejoin="round"/>
<path d="M53.1613 94.868L56.1018 93.8841" stroke="#1A1A23" stroke-width="2" stroke-linecap="round" stroke-linejoin="round"/>
<path d="M53.6129 86.0643L40.9586 90.2894C40.4076 90.4734 40.1898 91.1543 40.4723 91.8102L43.7818 99.4951C44.0643 100.151 44.74 100.534 45.2911 100.35L57.9454 96.1245C58.4964 95.9405 58.7142 95.2596 58.4317 94.6037L55.1222 86.9188C54.8397 86.2629 54.164 85.8803 53.6129 86.0643Z" stroke="#1A1A23" stroke-width="2" stroke-linecap="round" stroke-linejoin="round"/>
<path d="M41.1838 94.1801L56.1783 89.1641" stroke="#1A1A23" stroke-width="2" stroke-linecap="round" stroke-linejoin="round"/>
<path d="M53.1613 94.868L56.1018 93.8841" stroke="#1A1A23" stroke-width="2" stroke-linecap="round" stroke-linejoin="round"/>
<path d="M73.0065 79.4742L70.0812 80.5389C70.0232 81.3873 70.0456 81.9527 70.1484 82.2353C70.2237 82.442 70.3471 82.5453 70.5188 82.5453C70.6974 82.5427 70.9417 82.485 71.2518 82.3721L71.4023 82.7856L68.57 83.8164L68.4195 83.403C68.5774 83.3221 68.7086 83.2431 68.8133 83.166C68.9247 83.0864 69.014 82.9993 69.081 82.9047C69.1549 82.8076 69.2088 82.6982 69.2426 82.5767C69.2739 82.4482 69.2942 82.3003 69.3035 82.1331L69.5427 74.3318L70.3077 74.0534L74.9752 79.1908C75.2479 79.4895 75.4688 79.7213 75.638 79.886C75.8141 80.0482 75.9774 80.1644 76.1277 80.2345C76.2825 80.2953 76.4398 80.32 76.5995 80.3087C76.7662 80.2948 76.9704 80.2556 77.2122 80.191L77.3665 80.6148L73.4593 82.0369L73.305 81.6131C73.6308 81.4789 73.856 81.358 73.9806 81.2502C74.1053 81.1424 74.1375 81.0058 74.0773 80.8404C74.0422 80.7439 73.9729 80.6286 73.8695 80.4946C73.7661 80.3605 73.6329 80.1983 73.4699 80.0079L73.0065 79.4742ZM70.0932 79.8322L72.5533 78.9368L70.2247 76.2375L70.1833 76.2525L70.0932 79.8322ZM82.4499 77.793C82.2934 78.1777 82.0475 78.5208 81.7124 78.8223C81.3842 79.1213 80.9927 79.3535 80.5379 79.519C80.1175 79.672 79.7113 79.7458 79.3191 79.7402C78.9243 79.7278 78.559 79.6462 78.2232 79.4953C77.8873 79.3444 77.589 79.1252 77.3283 78.8377C77.072 78.5408 76.8686 78.1856 76.7181 77.7721C76.5626 77.3449 76.4932 76.9292 76.51 76.5251C76.5268 76.121 76.621 75.7472 76.7925 75.4038C76.9616 75.0536 77.2037 74.743 77.5187 74.4723C77.8338 74.2015 78.2118 73.9859 78.6529 73.8254C78.963 73.7125 79.2602 73.6394 79.5447 73.6061C79.836 73.5703 80.0948 73.5737 80.3209 73.6163C80.554 73.6563 80.7533 73.732 80.9187 73.8435C81.0816 73.9481 81.1945 74.0865 81.2572 74.2588C81.3299 74.4586 81.329 74.6385 81.2545 74.7982C81.1869 74.9555 81.0566 75.0693 80.8637 75.1395C80.7052 75.1972 80.5488 75.2073 80.3947 75.1697C80.2475 75.1297 80.0814 75.0379 79.8965 74.8945C79.733 74.7667 79.5957 74.6684 79.4848 74.5995C79.3808 74.5281 79.289 74.4796 79.2094 74.4539C79.1273 74.4214 79.0528 74.4095 78.9857 74.4183C78.9162 74.4202 78.8366 74.4374 78.747 74.4701C78.3474 74.6155 78.105 74.9144 78.0199 75.3668C77.9348 75.8192 78.0139 76.3796 78.2572 77.048C78.5181 77.7647 78.8497 78.2684 79.252 78.5589C79.6612 78.847 80.1139 78.9008 80.61 78.7202C80.8926 78.6174 81.1563 78.4628 81.4012 78.2566C81.6436 78.0435 81.8559 77.7907 82.0382 77.498L82.4499 77.793ZM88.6979 75.5189C88.5414 75.9037 88.2955 76.2468 87.9604 76.5482C87.6322 76.8472 87.2407 77.0794 86.7859 77.2449C86.3655 77.3979 85.9593 77.4717 85.5671 77.4662C85.1723 77.4537 84.807 77.3721 84.4712 77.2212C84.1353 77.0703 83.837 76.8511 83.5763 76.5636C83.32 76.2667 83.1166 75.9115 82.9661 75.4981C82.8106 75.0708 82.7412 74.6551 82.758 74.251C82.7748 73.8469 82.869 73.4731 83.0406 73.1298C83.2096 72.7795 83.4517 72.469 83.7667 72.1982C84.0818 71.9275 84.4598 71.7118 84.9009 71.5513C85.211 71.4384 85.5082 71.3653 85.7927 71.3321C86.084 71.2963 86.3428 71.2996 86.5689 71.3422C86.802 71.3822 87.0013 71.4579 87.1667 71.5694C87.3297 71.674 87.4425 71.8124 87.5052 71.9847C87.5779 72.1846 87.577 72.3644 87.5025 72.5242C87.4349 72.6814 87.3046 72.7952 87.1117 72.8654C86.9532 72.9231 86.7968 72.9332 86.6427 72.8956C86.4955 72.8556 86.3294 72.7638 86.1445 72.6204C85.981 72.4926 85.8437 72.3943 85.7328 72.3254C85.6288 72.254 85.537 72.2055 85.4574 72.1799C85.3753 72.1473 85.3008 72.1354 85.2337 72.1442C85.1642 72.1461 85.0846 72.1634 84.995 72.196C84.5954 72.3414 84.353 72.6404 84.2679 73.0927C84.1828 73.5451 84.2619 74.1055 84.5052 74.774C84.7661 75.4906 85.0977 75.9943 85.5 76.2849C85.9092 76.5729 86.3619 76.6267 86.858 76.4461C87.1406 76.3433 87.4043 76.1887 87.6492 75.9825C87.8916 75.7695 88.1039 75.5166 88.2862 75.2239L88.6979 75.5189ZM91.1592 69.2734C91.5727 69.123 91.9884 69.0536 92.4063 69.0654C92.8285 69.0678 93.2226 69.1428 93.5886 69.2906C93.9614 69.4358 94.2898 69.6519 94.5737 69.9388C94.862 70.2162 95.0801 70.5582 95.2281 70.9648C95.3811 71.3852 95.4388 71.8012 95.4014 72.2128C95.3708 72.6219 95.2606 73.0054 95.0709 73.3632C94.8881 73.7185 94.6369 74.0362 94.3175 74.3164C94.0049 74.594 93.6419 74.8081 93.2284 74.9586C92.8219 75.1066 92.4109 75.1781 91.9955 75.1732C91.5776 75.1614 91.1844 75.0782 90.816 74.9236C90.4475 74.7689 90.1201 74.5447 89.8337 74.251C89.5448 73.9503 89.3238 73.5898 89.1708 73.1695C89.0228 72.7629 88.9654 72.3585 88.9985 71.9563C89.0316 71.554 89.1408 71.1787 89.3261 70.8303C89.5115 70.4819 89.7617 70.1723 90.0768 69.9015C90.3918 69.6308 90.7526 69.4214 91.1592 69.2734ZM91.3774 69.873C91.1707 69.9482 91.0013 70.0723 90.8691 70.2453C90.7344 70.4113 90.6402 70.6134 90.5864 70.8515C90.5395 71.0871 90.5317 71.3553 90.5631 71.656C90.5989 71.9473 90.677 72.2584 90.7974 72.5891C90.9228 72.9337 91.0667 73.2325 91.2291 73.4856C91.3983 73.7361 91.5766 73.9366 91.764 74.0869C91.9582 74.2347 92.1581 74.3336 92.3637 74.3837C92.5736 74.4243 92.7853 74.4058 92.9989 74.3281C93.2126 74.2503 93.3867 74.1284 93.5214 73.9623C93.6604 73.7868 93.7568 73.5801 93.8106 73.342C93.8619 73.097 93.8719 72.8241 93.8405 72.5234C93.809 72.2227 93.7319 71.9035 93.609 71.5658C93.4886 71.235 93.345 70.9478 93.1783 70.7042C93.0116 70.4605 92.8311 70.2647 92.6368 70.1169C92.44 69.9622 92.2333 69.8658 92.0165 69.8277C91.8041 69.7801 91.591 69.7952 91.3774 69.873ZM100.467 67.9224C100.367 67.6468 100.281 67.4322 100.21 67.2788C100.136 67.1184 100.052 67.0082 99.9604 66.948C99.8657 66.881 99.7514 66.8563 99.6173 66.8739C99.4876 66.8821 99.3157 66.9135 99.1014 66.968L98.9509 66.5546L101.287 65.7043L102.427 68.8363C102.58 69.2566 102.704 69.5862 102.798 69.8248C102.898 70.0541 102.982 70.2223 103.052 70.3294C103.106 70.4115 103.156 70.4751 103.204 70.5202C103.249 70.5584 103.309 70.5834 103.383 70.5953C103.455 70.6003 103.546 70.5909 103.654 70.567C103.767 70.5338 103.909 70.4858 104.081 70.4231L104.228 70.8262L102.216 71.699L101.768 70.8204L101.726 70.8354C101.653 71.1901 101.483 71.5056 101.216 71.782C100.95 72.0583 100.617 72.2693 100.218 72.4147C99.4803 72.6831 98.8233 72.6257 98.2468 72.2424C97.805 71.9506 97.4499 71.436 97.1816 70.6986L96.6737 69.3032C96.5708 69.0207 96.4837 68.8026 96.4122 68.6492C96.3382 68.4888 96.2552 68.3786 96.1631 68.3184C96.0778 68.2558 95.9716 68.232 95.8445 68.2471C95.7148 68.2553 95.5428 68.2867 95.3285 68.3412L95.178 67.9278L97.4935 67.085L98.5582 70.0103C98.8115 70.7063 99.082 71.1814 99.3696 71.4357C99.6548 71.6831 99.9868 71.7378 100.366 71.5999C100.772 71.4519 101.018 71.1517 101.103 70.6994C101.193 70.2608 101.112 69.6935 100.858 68.9975L100.467 67.9224ZM106.823 67.9855C106.926 68.268 107.014 68.4895 107.088 68.6498C107.166 68.8008 107.25 68.911 107.337 68.9806C107.429 69.0407 107.539 69.0632 107.666 69.0481C107.8 69.0306 107.973 68.991 108.185 68.9296L108.335 69.343L105.079 70.5281L104.929 70.1147C105.124 70.0282 105.275 69.9498 105.382 69.8796C105.496 69.8069 105.569 69.7179 105.601 69.6126C105.64 69.5048 105.642 69.3714 105.607 69.2123C105.573 69.0531 105.508 68.8426 105.412 68.5808L104.942 67.2887C104.794 66.8821 104.668 66.5573 104.564 66.3143C104.457 66.0643 104.378 65.8983 104.324 65.8162C104.271 65.7342 104.217 65.6718 104.163 65.6293C104.106 65.5798 104.038 65.5538 103.959 65.5513C103.877 65.5419 103.784 65.5526 103.678 65.5834C103.569 65.6072 103.436 65.648 103.277 65.7056L103.149 65.3542L105.001 64.2353L105.467 65.096L105.508 65.081C105.63 64.7088 105.818 64.387 106.07 64.1156C106.322 63.8443 106.635 63.6409 107.007 63.5054C107.448 63.3449 107.825 63.2778 108.139 63.304C108.457 63.3208 108.775 63.4316 109.091 63.6364C109.266 63.7522 109.445 63.9214 109.627 64.1437C109.807 64.3592 109.977 64.6874 110.138 65.1285L110.668 66.5859C110.771 66.8685 110.859 67.0899 110.933 67.2503C111.012 67.4013 111.095 67.5115 111.182 67.581C111.275 67.6411 111.384 67.6637 111.511 67.6486C111.639 67.6335 111.805 67.5965 112.009 67.5375L112.16 67.951L108.925 69.1286L108.774 68.7151C108.978 68.633 109.134 68.5568 109.241 68.4866C109.353 68.407 109.424 68.3146 109.456 68.2093C109.488 68.104 109.487 67.9718 109.452 67.8127C109.415 67.6467 109.35 67.4362 109.258 67.1812L108.746 65.7755C108.618 65.424 108.49 65.1352 108.36 64.9091C108.231 64.6829 108.092 64.5151 107.943 64.4055C107.798 64.2865 107.639 64.2236 107.465 64.2167C107.288 64.203 107.086 64.2375 106.858 64.3203C106.638 64.4005 106.471 64.5315 106.358 64.7133C106.244 64.895 106.169 65.1174 106.132 65.3806C106.115 65.5272 106.119 65.7092 106.144 65.9266C106.173 66.1346 106.226 66.3454 106.304 66.559L106.823 67.9855ZM111.175 62.7493L111.005 62.2842C111.376 62.0165 111.657 61.7154 111.847 61.3808C112.042 61.0368 112.152 60.6846 112.177 60.3243L112.704 60.1325L113.159 61.3832L114.348 60.9506L114.555 61.5191L113.366 61.9517L114.521 65.1251C114.677 65.5523 114.832 65.8392 114.986 65.9858C115.148 66.1298 115.339 66.1617 115.56 66.0815C115.829 65.9836 115.987 65.7856 116.034 65.4874L116.36 65.7081C116.345 66.2676 115.98 66.6778 115.263 66.9386C114.788 67.1117 114.375 67.1369 114.026 67.0142C113.684 66.889 113.44 66.6265 113.295 66.2269L111.929 62.4747L111.175 62.7493ZM127.186 62.5991L120.233 57.7433L120.191 57.7584L121.809 62.2031C121.935 62.5477 122.044 62.8161 122.137 63.0084C122.238 63.1982 122.346 63.3345 122.462 63.4171C122.585 63.4973 122.721 63.5295 122.872 63.5138C123.029 63.4956 123.222 63.4486 123.452 63.3727L123.603 63.7861L120.533 64.9035L120.382 64.4901C120.635 64.3904 120.831 64.2957 120.97 64.2061C121.113 64.107 121.207 63.9908 121.252 63.8573C121.304 63.7214 121.31 63.5553 121.27 63.3592C121.227 63.1562 121.147 62.8928 121.029 62.5689L119.517 58.4136C119.412 58.1242 119.311 57.8915 119.216 57.7154C119.118 57.5325 119.011 57.3997 118.895 57.3171C118.779 57.2344 118.642 57.1987 118.482 57.21C118.326 57.212 118.129 57.2487 117.89 57.3202L117.739 56.9067L120.623 55.857L126.963 60.3154L127.005 60.3004L125.549 56.3001C125.426 55.9625 125.314 55.6987 125.214 55.5089C125.118 55.3097 125.009 55.17 124.886 55.0899C124.77 55.0072 124.633 54.975 124.476 54.9932C124.326 55.0089 124.136 55.0547 123.906 55.1306L123.755 54.7171L126.825 53.5997L126.976 54.0132C126.723 54.1129 126.525 54.2122 126.382 54.3113C126.243 54.4009 126.147 54.5137 126.095 54.6497C126.05 54.7831 126.049 54.9514 126.092 55.1543C126.134 55.3573 126.213 55.6173 126.329 55.9343L128.571 62.0949L127.186 62.5991ZM133.524 55.8907C133.424 55.615 133.338 55.4005 133.267 55.247C133.193 55.0866 133.109 54.9764 133.017 54.9163C132.923 54.8493 132.808 54.8245 132.674 54.8421C132.545 54.8503 132.373 54.8817 132.158 54.9363L132.008 54.5228L134.344 53.6725L135.484 56.8045C135.637 57.2249 135.761 57.5544 135.855 57.7931C135.955 58.0224 136.039 58.1906 136.109 58.2977C136.163 58.3797 136.213 58.4433 136.261 58.4884C136.306 58.5266 136.366 58.5517 136.44 58.5635C136.512 58.5685 136.602 58.5591 136.711 58.5353C136.824 58.502 136.966 58.4541 137.138 58.3914L137.285 58.7945L135.273 59.6672L134.825 58.7886L134.783 58.8037C134.71 59.1583 134.54 59.4738 134.273 59.7502C134.007 60.0266 133.674 60.2375 133.275 60.383C132.537 60.6513 131.88 60.5939 131.304 60.2106C130.862 59.9188 130.507 59.4042 130.239 58.6669L129.731 57.2714C129.628 56.9889 129.541 56.7709 129.469 56.6174C129.395 56.457 129.312 56.3468 129.22 56.2867C129.135 56.224 129.029 56.2003 128.901 56.2153C128.772 56.2235 128.6 56.2549 128.386 56.3095L128.235 55.896L130.55 55.0533L131.615 57.9785C131.868 58.6745 132.139 59.1497 132.427 59.404C132.712 59.6514 133.044 59.7061 133.423 59.5681C133.829 59.4202 134.075 59.12 134.16 58.6676C134.25 58.229 134.169 57.6617 133.915 56.9657L133.524 55.8907ZM139.883 55.9293C139.988 56.2187 140.078 56.4436 140.152 56.604C140.226 56.7643 140.31 56.878 140.405 56.945C140.497 57.0052 140.606 57.0277 140.734 57.0126C140.861 56.9975 141.03 56.9593 141.242 56.8978L141.392 57.3113L138.126 58.5001L137.976 58.0867C138.177 57.9976 138.335 57.9168 138.449 57.8441C138.563 57.7714 138.636 57.6824 138.668 57.5771C138.7 57.4718 138.699 57.3396 138.664 57.1805C138.627 57.0145 138.561 56.8005 138.466 56.5387L137.999 55.2569C137.856 54.8642 137.73 54.5393 137.621 54.2825C137.519 54.0231 137.436 53.8502 137.374 53.7638C137.32 53.6817 137.268 53.6229 137.216 53.5872C137.168 53.5421 137.105 53.5183 137.026 53.5158C136.951 53.5039 136.861 53.5133 136.755 53.5441C136.647 53.5679 136.51 53.6099 136.345 53.6701L136.217 53.3187L138.069 52.1998L138.52 53.0539L138.582 53.0313C138.754 52.6021 138.959 52.2659 139.198 52.0228C139.444 51.7771 139.76 51.584 140.146 51.4436C140.601 51.278 141.006 51.2206 141.36 51.2712C141.714 51.3219 142.02 51.4678 142.28 51.7089L142.321 51.6939C142.464 51.3141 142.679 50.9823 142.966 50.6984C143.25 50.4076 143.588 50.1908 143.981 50.0478C144.395 49.8973 144.772 49.8186 145.113 49.8116C145.46 49.8021 145.756 49.8624 145.998 49.9927C146.194 50.101 146.369 50.2714 146.524 50.5038C146.685 50.7337 146.849 51.076 147.014 51.5308L147.594 53.1227C147.697 53.4052 147.785 53.6267 147.859 53.787C147.94 53.9449 148.028 54.0573 148.122 54.1243C148.217 54.1913 148.328 54.2173 148.455 54.2022C148.582 54.1872 148.752 54.1489 148.963 54.0874L149.114 54.5009L145.847 55.6898L145.697 55.2763C145.901 55.1942 146.057 55.118 146.164 55.0478C146.276 54.9682 146.347 54.8757 146.379 54.7705C146.415 54.6558 146.413 54.5202 146.372 54.3636C146.337 54.2044 146.272 53.9939 146.177 53.7321L145.684 52.378C145.554 52.0196 145.422 51.724 145.291 51.4909C145.159 51.2579 145.021 51.0819 144.876 50.9629C144.731 50.8439 144.572 50.781 144.398 50.7741C144.228 50.7579 144.036 50.7886 143.823 50.8664C143.582 50.9542 143.403 51.0855 143.287 51.2603C143.178 51.4327 143.106 51.6307 143.07 51.8543C143.009 52.2434 143.066 52.6792 143.242 53.1615L143.738 54.526C143.841 54.8085 143.929 55.03 144.003 55.1903C144.077 55.3507 144.162 55.4644 144.256 55.5314C144.351 55.5984 144.462 55.6244 144.589 55.6093C144.723 55.5917 144.9 55.5509 145.118 55.487L145.269 55.9004L141.992 57.0931L141.841 56.6796C142.043 56.5906 142.198 56.511 142.305 56.4408C142.419 56.368 142.492 56.2791 142.524 56.1738C142.562 56.066 142.561 55.9338 142.52 55.7772C142.483 55.6112 142.417 55.3972 142.321 55.1354L141.828 53.7813C141.698 53.4229 141.567 53.1273 141.435 52.8942C141.304 52.6612 141.162 52.4864 141.01 52.37C140.866 52.251 140.706 52.188 140.532 52.1812C140.355 52.1675 140.153 52.202 139.926 52.2848C139.698 52.3675 139.529 52.4916 139.417 52.6571C139.313 52.82 139.246 53.012 139.217 53.2332C139.188 53.4312 139.188 53.6458 139.218 53.877C139.247 54.1082 139.303 54.3374 139.386 54.5648L139.883 55.9293ZM151.189 51.1821C151.282 51.437 151.403 51.6622 151.552 51.8577C151.705 52.0437 151.873 52.1934 152.055 52.3068C152.236 52.4201 152.43 52.4902 152.635 52.5171C152.839 52.544 153.045 52.5198 153.252 52.4446C153.665 52.2941 153.91 51.9904 153.986 51.5337C154.061 51.0769 153.965 50.4799 153.697 49.7425C153.436 49.0258 153.131 48.5203 152.782 48.226C152.437 47.9222 152.055 47.8468 151.634 47.9998C151.386 48.0901 151.18 48.243 151.017 48.4586C150.858 48.6648 150.764 48.9098 150.734 49.1936C150.696 49.5821 150.769 50.0278 150.952 50.5309L151.189 51.1821ZM150.258 48.6881L150.299 48.6731C150.383 48.346 150.541 48.0622 150.773 47.8215C151.003 47.574 151.297 47.385 151.656 47.2545C152.021 47.1216 152.386 47.0745 152.751 47.1132C153.121 47.1426 153.466 47.2434 153.786 47.4156C154.113 47.5853 154.405 47.8185 154.661 48.1154C154.918 48.4123 155.117 48.7572 155.26 49.15C155.411 49.5634 155.478 49.9722 155.461 50.3764C155.448 50.7711 155.365 51.1411 155.209 51.4863C155.061 51.8291 154.848 52.133 154.57 52.3981C154.298 52.6607 153.98 52.8585 153.615 52.9914C153.236 53.1294 152.851 53.1874 152.461 53.1656C152.075 53.1344 151.738 53.0346 151.451 52.8661L150.917 53.8446L150.566 53.9725L148.327 47.8222C148.091 47.1745 147.885 46.7463 147.707 46.5377C147.669 46.497 147.63 46.4644 147.59 46.44C147.55 46.4156 147.498 46.4031 147.436 46.4025C147.377 46.3924 147.301 46.3969 147.206 46.4157C147.109 46.4276 146.985 46.4496 146.832 46.4816L146.704 46.1301L148.869 44.8739L150.258 48.6881ZM162.297 48.6138C161.929 49.5518 161.276 50.1914 160.339 50.5325C159.911 50.688 159.498 50.7643 159.099 50.7612C158.704 50.7488 158.339 50.6672 158.003 50.5163C157.665 50.3585 157.365 50.1359 157.105 49.8484C156.844 49.5609 156.638 49.2104 156.488 48.7969C156.332 48.3697 156.263 47.954 156.28 47.5499C156.294 47.1389 156.386 46.7582 156.555 46.4079C156.728 46.0482 156.968 45.7308 157.273 45.4557C157.586 45.1781 157.959 44.9602 158.393 44.8022C159.124 44.5364 159.764 44.5258 160.313 44.7706C160.863 45.0155 161.267 45.4927 161.525 46.2025C161.565 46.3128 161.573 46.388 161.549 46.4281C161.522 46.4613 161.429 46.5067 161.271 46.5644L157.942 47.7759C157.937 47.8479 157.965 47.9666 158.025 48.132C158.271 48.8073 158.61 49.2887 159.042 49.5762C159.482 49.8611 159.953 49.912 160.456 49.7289C160.745 49.6236 161.007 49.4541 161.242 49.2203C161.484 48.984 161.695 48.6964 161.876 48.3574L162.297 48.6138ZM159.303 46.6252C159.578 46.5248 159.749 46.4471 159.815 46.3919C159.885 46.3274 159.899 46.2365 159.856 46.1194C159.746 45.8162 159.569 45.5994 159.327 45.4692C159.084 45.339 158.832 45.3215 158.57 45.4168C158.274 45.5246 158.054 45.7452 157.91 46.0786C157.77 46.4026 157.735 46.7666 157.804 47.1707L159.303 46.6252ZM165.609 46.6826C165.707 46.9514 165.795 47.1613 165.874 47.3122C165.956 47.4538 166.051 47.5521 166.156 47.6072C166.262 47.6623 166.393 47.6773 166.547 47.6522C166.7 47.6202 166.896 47.5603 167.138 47.4726L167.288 47.886L163.836 49.1426L163.685 48.7291C163.887 48.6401 164.045 48.5592 164.159 48.4865C164.273 48.4138 164.346 48.3248 164.378 48.2196C164.41 48.1143 164.405 47.9834 164.363 47.8267C164.326 47.6607 164.26 47.4468 164.165 47.1849L163.706 45.9239C163.55 45.4966 163.416 45.1593 163.302 44.9118C163.189 44.6644 163.073 44.4843 162.954 44.3715C162.835 44.2588 162.702 44.2056 162.556 44.2119C162.414 44.2088 162.24 44.2449 162.034 44.3201L161.902 43.9583L163.83 42.8234L164.428 43.952L164.469 43.9369C164.523 43.504 164.662 43.1255 164.887 42.8015C165.113 42.4775 165.394 42.2541 165.732 42.1312C165.994 42.0359 166.231 42.0236 166.444 42.0943C166.657 42.1651 166.8 42.3003 166.873 42.5002C166.953 42.7207 166.955 42.9306 166.88 43.1298C166.811 43.3266 166.666 43.4651 166.446 43.5454C166.342 43.583 166.242 43.5962 166.144 43.5849C166.046 43.5737 165.954 43.5565 165.868 43.5333C165.786 43.5008 165.703 43.4764 165.619 43.4601C165.539 43.4344 165.465 43.4341 165.396 43.4592C165.265 43.5069 165.172 43.6382 165.118 43.8531C165.063 44.068 165.051 44.334 165.08 44.651C165.101 44.8778 165.141 45.1284 165.202 45.4028C165.26 45.6703 165.336 45.9315 165.429 46.1865L165.609 46.6826Z" fill="#1A1A23"/>
<path d="M73.0446 93.1345C72.8768 92.6734 72.8865 92.2293 73.0737 91.8022C73.2701 91.3554 73.5988 91.0481 74.0599 90.8803C74.5354 90.7073 74.9919 90.7287 75.4295 90.9448C75.8619 91.1464 76.162 91.4777 76.3298 91.9388C76.4924 92.3855 76.4729 92.825 76.2712 93.2573C76.0644 93.6753 75.7232 93.9708 75.2477 94.1439C74.7866 94.3117 74.3425 94.302 73.9154 94.1148C73.4975 93.9079 73.2072 93.5812 73.0446 93.1345ZM79.5234 90.7764C79.3556 90.3153 79.3653 89.8712 79.5525 89.4441C79.7489 88.9973 80.0776 88.69 80.5387 88.5222C81.0142 88.3492 81.4707 88.3706 81.9083 88.5867C82.3407 88.7883 82.6408 89.1196 82.8086 89.5807C82.9712 90.0274 82.9517 90.4669 82.7501 90.8993C82.5432 91.3172 82.202 91.6127 81.7265 91.7858C81.2655 91.9536 80.8214 91.9439 80.3942 91.7567C79.9763 91.5498 79.686 91.2231 79.5234 90.7764ZM86.0023 88.4183C85.8344 87.9572 85.8441 87.5131 86.0313 87.086C86.2277 86.6392 86.5564 86.332 87.0175 86.1641C87.493 85.9911 87.9495 86.0126 88.3872 86.2286C88.8195 86.4302 89.1196 86.7615 89.2874 87.2226C89.45 87.6693 89.4305 88.1088 89.2289 88.5412C89.022 88.9591 88.6808 89.2546 88.2054 89.4277C87.7443 89.5955 87.3002 89.5858 86.8731 89.3986C86.4551 89.1917 86.1648 88.865 86.0023 88.4183ZM92.4811 86.0602C92.3133 85.5991 92.323 85.155 92.5102 84.7279C92.7065 84.2812 93.0353 83.9739 93.4963 83.806C93.9718 83.633 94.4284 83.6545 94.866 83.8705C95.2983 84.0721 95.5984 84.4034 95.7662 84.8645C95.9288 85.3112 95.9093 85.7507 95.7077 86.1831C95.5008 86.601 95.1596 86.8965 94.6842 87.0696C94.2231 87.2374 93.779 87.2277 93.3519 87.0405C92.9339 86.8336 92.6437 86.5069 92.4811 86.0602ZM105.565 81.2979C105.398 80.8369 105.407 80.3928 105.594 79.9656C105.791 79.5189 106.12 79.2116 106.581 79.0438C107.056 78.8707 107.513 78.8922 107.95 79.1082C108.383 79.3098 108.683 79.6412 108.851 80.1022C109.013 80.5489 108.994 80.9884 108.792 81.4208C108.585 81.8387 108.244 82.1342 107.768 82.3073C107.307 82.4751 106.863 82.4654 106.436 82.2782C106.018 82.0714 105.728 81.7446 105.565 81.2979ZM112.044 78.9398C111.876 78.4788 111.886 78.0347 112.073 77.6075C112.27 77.1608 112.598 76.8535 113.059 76.6857C113.535 76.5126 113.991 76.5341 114.429 76.7501C114.861 76.9517 115.162 77.2831 115.329 77.7441C115.492 78.1908 115.472 78.6303 115.271 79.0627C115.064 79.4806 114.723 79.7761 114.247 79.9492C113.786 80.117 113.342 80.1073 112.915 79.9201C112.497 79.7133 112.207 79.3865 112.044 78.9398ZM118.523 76.5817C118.355 76.1207 118.365 75.6766 118.552 75.2495C118.748 74.8027 119.077 74.4954 119.538 74.3276C120.014 74.1545 120.47 74.176 120.908 74.392C121.34 74.5936 121.64 74.925 121.808 75.386C121.971 75.8327 121.951 76.2722 121.75 76.7046C121.543 77.1225 121.202 77.4181 120.726 77.5911C120.265 77.7589 119.821 77.7492 119.394 77.562C118.976 77.3552 118.686 77.0284 118.523 76.5817ZM125.002 74.2236C124.834 73.7626 124.844 73.3185 125.031 72.8914C125.227 72.4446 125.556 72.1373 126.017 71.9695C126.493 71.7964 126.949 71.8179 127.387 72.0339C127.819 72.2355 128.119 72.5669 128.287 73.0279C128.45 73.4746 128.43 73.9141 128.228 74.3465C128.022 74.7645 127.68 75.06 127.205 75.233C126.744 75.4008 126.3 75.3911 125.873 75.2039C125.455 74.9971 125.164 74.6703 125.002 74.2236Z" fill="#1A1A23"/>
<path d="M73.0446 93.1345C72.8768 92.6734 72.8865 92.2293 73.0737 91.8022C73.2701 91.3554 73.5988 91.0481 74.0599 90.8803C74.5354 90.7073 74.9919 90.7287 75.4295 90.9448C75.8619 91.1464 76.162 91.4777 76.3298 91.9388C76.4924 92.3855 76.4729 92.825 76.2712 93.2573C76.0644 93.6753 75.7232 93.9708 75.2477 94.1439C74.7866 94.3117 74.3425 94.302 73.9154 94.1148C73.4975 93.9079 73.2072 93.5812 73.0446 93.1345ZM79.5234 90.7764C79.3556 90.3153 79.3653 89.8712 79.5525 89.4441C79.7489 88.9973 80.0776 88.69 80.5387 88.5222C81.0142 88.3492 81.4707 88.3706 81.9083 88.5867C82.3407 88.7883 82.6408 89.1196 82.8086 89.5807C82.9712 90.0274 82.9517 90.4669 82.7501 90.8993C82.5432 91.3172 82.202 91.6127 81.7265 91.7858C81.2655 91.9536 80.8214 91.9439 80.3942 91.7567C79.9763 91.5498 79.686 91.2231 79.5234 90.7764ZM86.0023 88.4183C85.8344 87.9572 85.8441 87.5131 86.0313 87.086C86.2277 86.6392 86.5564 86.332 87.0175 86.1641C87.493 85.9911 87.9495 86.0126 88.3872 86.2286C88.8195 86.4302 89.1196 86.7615 89.2874 87.2226C89.45 87.6693 89.4305 88.1088 89.2289 88.5412C89.022 88.9591 88.6808 89.2546 88.2054 89.4277C87.7443 89.5955 87.3002 89.5858 86.8731 89.3986C86.4551 89.1917 86.1648 88.865 86.0023 88.4183ZM92.4811 86.0602C92.3133 85.5991 92.323 85.155 92.5102 84.7279C92.7065 84.2812 93.0353 83.9739 93.4963 83.806C93.9718 83.633 94.4284 83.6545 94.866 83.8705C95.2983 84.0721 95.5984 84.4034 95.7662 84.8645C95.9288 85.3112 95.9093 85.7507 95.7077 86.1831C95.5008 86.601 95.1596 86.8965 94.6842 87.0696C94.2231 87.2374 93.779 87.2277 93.3519 87.0405C92.9339 86.8336 92.6437 86.5069 92.4811 86.0602ZM105.565 81.2979C105.398 80.8369 105.407 80.3928 105.594 79.9656C105.791 79.5189 106.12 79.2116 106.581 79.0438C107.056 78.8707 107.513 78.8922 107.95 79.1082C108.383 79.3098 108.683 79.6412 108.851 80.1022C109.013 80.5489 108.994 80.9884 108.792 81.4208C108.585 81.8387 108.244 82.1342 107.768 82.3073C107.307 82.4751 106.863 82.4654 106.436 82.2782C106.018 82.0714 105.728 81.7446 105.565 81.2979ZM112.044 78.9398C111.876 78.4788 111.886 78.0347 112.073 77.6075C112.27 77.1608 112.598 76.8535 113.059 76.6857C113.535 76.5126 113.991 76.5341 114.429 76.7501C114.861 76.9517 115.162 77.2831 115.329 77.7441C115.492 78.1908 115.472 78.6303 115.271 79.0627C115.064 79.4806 114.723 79.7761 114.247 79.9492C113.786 80.117 113.342 80.1073 112.915 79.9201C112.497 79.7133 112.207 79.3865 112.044 78.9398ZM118.523 76.5817C118.355 76.1207 118.365 75.6766 118.552 75.2495C118.748 74.8027 119.077 74.4954 119.538 74.3276C120.014 74.1545 120.47 74.176 120.908 74.392C121.34 74.5936 121.64 74.925 121.808 75.386C121.971 75.8327 121.951 76.2722 121.75 76.7046C121.543 77.1225 121.202 77.4181 120.726 77.5911C120.265 77.7589 119.821 77.7492 119.394 77.562C118.976 77.3552 118.686 77.0284 118.523 76.5817ZM125.002 74.2236C124.834 73.7626 124.844 73.3185 125.031 72.8914C125.227 72.4446 125.556 72.1373 126.017 71.9695C126.493 71.7964 126.949 71.8179 127.387 72.0339C127.819 72.2355 128.119 72.5669 128.287 73.0279C128.45 73.4746 128.43 73.9141 128.228 74.3465C128.022 74.7645 127.68 75.06 127.205 75.233C126.744 75.4008 126.3 75.3911 125.873 75.2039C125.455 74.9971 125.164 74.6703 125.002 74.2236Z" fill="#1A1A23"/>
<path d="M142.697 69.7931C142.786 70.0375 142.867 70.2314 142.941 70.3749C143.018 70.5099 143.107 70.6087 143.208 70.6713C143.313 70.7254 143.437 70.7441 143.58 70.7276C143.729 70.7087 143.918 70.6614 144.146 70.5856L144.282 70.9614L140.749 72.2474L140.612 71.8716C140.854 71.7764 141.042 71.6869 141.174 71.6031C141.311 71.5108 141.403 71.4134 141.451 71.3109C141.503 71.1998 141.516 71.0708 141.491 70.9238C141.47 70.7683 141.42 70.581 141.34 70.3617L140.098 66.9506C139.966 66.5873 139.853 66.2877 139.76 66.0519C139.674 65.8139 139.604 65.6618 139.552 65.5958C139.464 65.4716 139.324 65.4269 139.131 65.4617C138.944 65.4943 138.672 65.5755 138.315 65.7055L138.178 65.3296C138.345 65.2618 138.535 65.1786 138.747 65.08C138.963 64.9728 139.182 64.8614 139.402 64.7457C139.626 64.6215 139.843 64.4964 140.053 64.3705C140.263 64.2445 140.442 64.1226 140.59 64.0046L142.697 69.7931ZM146.628 68.852L148.545 68.1543C148.701 68.0973 148.835 68.0346 148.945 67.9662C149.052 67.8916 149.135 67.7976 149.193 67.6842C149.257 67.5686 149.302 67.4282 149.327 67.263C149.35 67.0915 149.356 66.8836 149.345 66.6393L149.758 66.4888L150.179 68.8151L145.255 70.6073L145.098 70.175C145.611 69.2647 146.021 68.4911 146.328 67.8542C146.634 67.2111 146.855 66.6588 146.992 66.1974C147.133 65.7275 147.198 65.3208 147.186 64.9774C147.179 64.6254 147.115 64.2834 146.994 63.9513C146.827 63.494 146.593 63.1714 146.29 62.9835C145.988 62.7957 145.658 62.7667 145.301 62.8967C145.132 62.9583 144.983 63.0477 144.856 63.1651C144.732 63.2739 144.637 63.401 144.569 63.5462C144.507 63.6892 144.473 63.8473 144.465 64.0204C144.463 64.1913 144.494 64.3644 144.558 64.5398C144.672 64.8531 144.841 65.072 145.063 65.1967C145.292 65.3191 145.545 65.3301 145.82 65.2298C145.855 65.4229 145.82 65.5989 145.714 65.7578C145.615 65.9145 145.466 66.0293 145.265 66.1023C145.071 66.1729 144.877 66.2046 144.682 66.1973C144.495 66.1876 144.315 66.143 144.144 66.0633C143.98 65.9813 143.832 65.8683 143.702 65.7242C143.569 65.5739 143.465 65.3954 143.39 65.1886C143.287 64.9067 143.256 64.6271 143.297 64.3497C143.342 64.0638 143.448 63.7909 143.616 63.5311C143.784 63.2714 144.008 63.0375 144.287 62.8295C144.57 62.613 144.896 62.4375 145.266 62.3029C145.635 62.1684 145.992 62.0954 146.335 62.0839C146.679 62.0724 146.993 62.1176 147.279 62.2195C147.568 62.3128 147.818 62.4631 148.028 62.6703C148.242 62.8691 148.404 63.1188 148.513 63.4195C148.65 63.7953 148.696 64.1937 148.651 64.6147C148.611 65.0333 148.5 65.4677 148.316 65.9177C148.138 66.3654 147.9 66.8317 147.601 67.3165C147.309 67.799 146.975 68.2963 146.601 68.8085L146.628 68.852ZM154.678 64.8791C154.503 64.3967 154.273 64.0581 153.989 63.8634C153.703 63.6625 153.391 63.6235 153.053 63.7467C152.946 63.8424 152.838 63.9276 152.731 64.0022C152.629 64.0746 152.538 64.1256 152.457 64.1552C152.281 64.2191 152.131 64.2348 152.005 64.2023C151.884 64.1614 151.8 64.0751 151.752 63.9435C151.711 63.8308 151.726 63.726 151.797 63.6291C151.868 63.5323 151.988 63.4531 152.157 63.3915C152.245 63.3596 152.347 63.3368 152.462 63.3231C152.582 63.3008 152.69 63.2863 152.787 63.2794C153.088 63.17 153.284 62.9674 153.375 62.6718C153.47 62.3676 153.432 61.9806 153.261 61.5107C153.096 61.0597 152.881 60.7513 152.615 60.5857C152.356 60.4177 152.072 60.3896 151.765 60.5013C151.477 60.6062 151.277 60.7572 151.164 60.9543C151.057 61.1491 151.049 61.3687 151.138 61.613C151.199 61.7822 151.297 61.906 151.432 61.9846C151.574 62.0609 151.72 62.0717 151.87 62.0169C151.894 62.1998 151.861 62.3641 151.773 62.5099C151.682 62.6495 151.539 62.7546 151.345 62.8253C151.194 62.88 151.04 62.9043 150.882 62.8981C150.73 62.8896 150.585 62.8534 150.448 62.7897C150.312 62.7259 150.189 62.6428 150.081 62.5403C149.977 62.4293 149.897 62.2986 149.843 62.1482C149.77 61.9478 149.757 61.7467 149.804 61.5451C149.851 61.3434 149.95 61.1478 150.101 60.9581C150.258 60.7661 150.46 60.5897 150.707 60.429C150.959 60.2661 151.255 60.123 151.593 59.9999C151.963 59.8653 152.31 59.7852 152.634 59.7595C152.962 59.7252 153.26 59.7445 153.528 59.8173C153.793 59.8839 154.02 60 154.208 60.1657C154.396 60.3314 154.535 60.5395 154.627 60.7901C154.699 60.9906 154.736 61.1973 154.735 61.4103C154.741 61.6211 154.71 61.8276 154.641 62.0298C154.577 62.2235 154.481 62.4075 154.353 62.5818C154.231 62.7538 154.082 62.9003 153.906 63.0211L153.927 63.0774C154.19 63.0597 154.441 63.0781 154.681 63.1327C154.925 63.1788 155.146 63.2613 155.346 63.3803C155.545 63.4993 155.719 63.6453 155.867 63.8184C156.015 63.9916 156.13 64.1909 156.212 64.4164C156.32 64.7108 156.35 65.0084 156.303 65.3092C156.263 65.6076 156.154 65.8922 155.975 66.1628C155.803 66.4311 155.57 66.6758 155.274 66.8969C154.985 67.1157 154.643 67.2969 154.248 67.4405C153.891 67.5705 153.544 67.6506 153.208 67.6809C152.875 67.7027 152.573 67.6814 152.301 67.6171C152.027 67.5466 151.791 67.4339 151.593 67.279C151.392 67.1179 151.248 66.9151 151.159 66.6708C151.095 66.4954 151.067 66.3211 151.075 66.148C151.087 65.9663 151.129 65.7985 151.2 65.6447C151.27 65.4847 151.367 65.3428 151.492 65.2192C151.618 65.0955 151.765 65.0029 151.934 64.9414C152.141 64.8661 152.337 64.8587 152.522 64.919C152.705 64.973 152.848 65.0841 152.952 65.2521C152.764 65.3205 152.636 65.4558 152.567 65.658C152.497 65.854 152.502 66.0647 152.585 66.2902C152.696 66.5972 152.883 66.8093 153.146 66.9266C153.413 67.0353 153.712 67.0292 154.044 66.9083C154.401 66.7784 154.64 66.5283 154.761 66.158C154.881 65.7877 154.854 65.3614 154.678 64.8791ZM156.903 63.5158L158.582 57.4562L159.475 57.1313L161.216 61.9143C161.439 61.826 161.618 61.743 161.753 61.6655C161.886 61.5818 161.981 61.4938 162.04 61.4015C162.096 61.3029 162.12 61.1916 162.11 61.0674C162.1 60.9432 162.062 60.7903 161.996 60.6086L162.344 60.4821L163.175 62.7655L162.827 62.8921C162.766 62.7229 162.7 62.5908 162.63 62.4957C162.56 62.4006 162.474 62.3397 162.372 62.313C162.267 62.28 162.14 62.2803 161.989 62.3139C161.836 62.3413 161.645 62.3929 161.417 62.4687L161.523 62.76C161.603 62.9793 161.682 63.167 161.76 63.323C161.845 63.4768 161.939 63.5986 162.042 63.6886C162.144 63.7723 162.261 63.8218 162.394 63.8371C162.534 63.8502 162.696 63.8268 162.88 63.7669L163.016 64.1428L159.793 65.3159L159.656 64.9401C159.873 64.854 160.037 64.7588 160.148 64.6546C160.263 64.5418 160.336 64.4196 160.366 64.288C160.403 64.1541 160.406 64.0075 160.376 63.848C160.347 63.6885 160.295 63.5085 160.222 63.3081L160.106 62.9886L157.108 64.0796L156.903 63.5158ZM158.782 59.352L158.745 59.3656L157.692 63.1969L159.891 62.3966L158.782 59.352Z" fill="#1A1A23"/>
<path d="M50.2661 150.88L50.1361 150.523C50.3781 150.427 50.5655 150.338 50.6982 150.254C50.8371 150.168 50.9305 150.074 50.9783 149.971C51.0324 149.867 51.0469 149.741 51.0218 149.594C51.0029 149.444 50.9536 149.26 50.8738 149.041L49.28 144.662C49.2002 144.443 49.1238 144.272 49.0509 144.149C48.9819 144.018 48.8993 143.928 48.803 143.878C48.7108 143.819 48.5974 143.8 48.463 143.821C48.3263 143.835 48.1554 143.872 47.9504 143.933L47.8204 143.576L50.6301 142.553C51.4758 142.245 52.1884 142.156 52.7676 142.286C53.3469 142.416 53.7358 142.753 53.9341 143.298C54.0846 143.711 54.0762 144.098 53.9089 144.456C53.7478 144.813 53.4161 145.179 52.9138 145.553L52.9275 145.59C53.1286 145.539 53.3057 145.499 53.4589 145.472C53.6121 145.444 53.7519 145.429 53.8784 145.425C54.0025 145.416 54.1207 145.419 54.2329 145.435C54.3514 145.448 54.469 145.469 54.5858 145.498C55.287 145.689 55.7459 146.083 55.9625 146.678C56.0834 147.01 56.1023 147.354 56.0192 147.711C55.9402 148.059 55.7642 148.375 55.4915 148.659C55.4055 148.754 55.313 148.841 55.2139 148.919C55.1126 148.992 54.9913 149.068 54.85 149.147C54.7065 149.221 54.5368 149.3 54.3409 149.386C54.149 149.463 53.9183 149.55 53.6489 149.648L50.2661 150.88ZM53.5301 149.234C54.664 148.821 55.0542 148.13 54.7008 147.159C54.4431 146.451 53.9717 146.062 53.2865 145.992C53.1703 145.985 53.0595 145.982 52.9541 145.985C52.8488 145.988 52.7311 146.006 52.6013 146.039C52.4692 146.066 52.3143 146.108 52.1366 146.166C51.9651 146.221 51.7541 146.294 51.5035 146.385L51.0807 146.539L51.8434 148.635C51.9825 149.017 52.183 149.256 52.4451 149.352C52.7048 149.442 53.0665 149.403 53.5301 149.234ZM51.4359 145.878C51.6301 145.807 51.7918 145.745 51.9211 145.691C52.0504 145.637 52.1597 145.586 52.2492 145.539C52.3363 145.486 52.4097 145.435 52.4695 145.385C52.5333 145.326 52.5937 145.258 52.6506 145.18C52.8055 144.982 52.8917 144.781 52.9093 144.576C52.9331 144.368 52.8938 144.124 52.7912 143.842C52.611 143.347 52.3601 143.037 52.0382 142.913C51.7203 142.781 51.3046 142.808 50.7909 142.995L50.0673 143.258C49.9608 143.297 49.9269 143.369 49.9657 143.476L50.9097 146.07L51.4359 145.878ZM59.7557 144.276C59.4488 144.544 59.194 144.789 58.9913 145.012C58.7948 145.232 58.6454 145.436 58.5429 145.622C58.4404 145.808 58.3787 145.98 58.3577 146.136C58.3429 146.291 58.3606 146.437 58.4108 146.574C58.486 146.781 58.6165 146.925 58.8022 147.007C58.9879 147.088 59.1935 147.088 59.419 147.006C59.5819 146.946 59.7174 146.851 59.8256 146.719C59.9401 146.585 60.0255 146.43 60.0818 146.254C60.1358 146.071 60.16 145.874 60.1542 145.663C60.1462 145.446 60.1034 145.231 60.0259 145.018L59.7557 144.276ZM59.6086 143.872L59.4684 143.486C59.1902 142.722 58.7254 142.459 58.0739 142.696C57.9674 142.735 57.8799 142.777 57.8116 142.823C57.7433 142.869 57.692 142.923 57.6579 142.986C57.6237 143.048 57.5995 143.127 57.5853 143.225C57.5774 143.32 57.5763 143.434 57.582 143.567C57.5792 143.773 57.5548 143.921 57.5087 144.008C57.4665 144.087 57.3828 144.15 57.2575 144.195C56.9443 144.309 56.7307 144.21 56.6167 143.897C56.5072 143.596 56.5826 143.306 56.8428 143.027C57.1008 142.741 57.5242 142.491 58.113 142.277C58.7395 142.049 59.2253 142 59.5705 142.13C59.9134 142.253 60.1818 142.581 60.3756 143.114L61.1417 145.219C61.4017 145.933 61.6726 146.239 61.9545 146.136C62.0422 146.104 62.1234 146.064 62.198 146.015C62.2703 145.961 62.3175 145.876 62.3397 145.762L62.5534 145.939C62.5306 146.111 62.4373 146.283 62.2733 146.456C62.107 146.623 61.9142 146.747 61.695 146.826C61.4193 146.927 61.1807 146.914 60.979 146.789C60.7836 146.661 60.6278 146.438 60.5115 146.118L60.4645 146.136C60.4134 146.502 60.2768 146.828 60.0547 147.115C59.8304 147.395 59.5428 147.599 59.192 147.727C58.7973 147.87 58.4507 147.883 58.1522 147.765C57.8537 147.646 57.6429 147.418 57.5198 147.08C57.4651 146.929 57.4377 146.776 57.4377 146.62C57.4439 146.462 57.4837 146.298 57.5571 146.13C57.6305 145.961 57.7427 145.782 57.8936 145.592C58.0422 145.396 58.2346 145.184 58.4709 144.956L59.6086 143.872ZM64.498 144.04C64.5847 144.278 64.6636 144.465 64.7348 144.603C64.8061 144.74 64.8847 144.839 64.9707 144.9C65.063 144.958 65.1681 144.984 65.286 144.977C65.4102 144.967 65.5642 144.932 65.7482 144.872L65.8679 145.201L63.2743 146.145L63.1546 145.816C63.3403 145.742 63.4838 145.668 63.5852 145.596C63.6842 145.517 63.7514 145.429 63.7867 145.331C63.8283 145.231 63.8345 145.111 63.8054 144.973C63.7803 144.826 63.7278 144.643 63.648 144.423L62.1739 140.373C62.0508 140.035 61.9419 139.755 61.8473 139.535C61.7567 139.305 61.6872 139.153 61.6387 139.078C61.555 138.946 61.4444 138.876 61.3072 138.869C61.1762 138.86 60.9603 138.91 60.6596 139.02L60.5433 138.7L62.1928 137.706L64.498 144.04ZM68.7665 140.996C68.4595 141.264 68.2047 141.509 68.002 141.732C67.8056 141.952 67.6561 142.156 67.5537 142.342C67.4512 142.528 67.3895 142.7 67.3684 142.857C67.3537 143.011 67.3714 143.157 67.4215 143.295C67.4968 143.502 67.6273 143.646 67.813 143.727C67.9987 143.808 68.2043 143.808 68.4298 143.726C68.5927 143.667 68.7282 143.571 68.8364 143.44C68.9508 143.306 69.0362 143.151 69.0926 142.974C69.1466 142.791 69.1708 142.594 69.165 142.384C69.157 142.167 69.1142 141.952 69.0367 141.739L68.7665 140.996ZM68.6194 140.592L68.4792 140.207C68.201 139.443 67.7361 139.179 67.0846 139.416C66.9781 139.455 66.8907 139.497 66.8224 139.543C66.754 139.59 66.7028 139.644 66.6686 139.706C66.6345 139.768 66.6103 139.848 66.5961 139.945C66.5881 140.04 66.587 140.154 66.5928 140.287C66.59 140.494 66.5655 140.641 66.5194 140.729C66.4773 140.808 66.3936 140.87 66.2683 140.916C65.9551 141.03 65.7415 140.93 65.6274 140.617C65.518 140.316 65.5934 140.026 65.8536 139.747C66.1115 139.462 66.5349 139.212 67.1238 138.997C67.7503 138.769 68.2361 138.72 68.5813 138.85C68.9242 138.974 69.1926 139.302 69.3864 139.834L70.1525 141.939C70.4124 142.653 70.6834 142.959 70.9653 142.856C71.053 142.824 71.1341 142.784 71.2087 142.736C71.2811 142.681 71.3283 142.596 71.3505 142.482L71.5641 142.66C71.5414 142.831 71.448 143.003 71.284 143.177C71.1178 143.344 70.925 143.467 70.7058 143.547C70.4301 143.647 70.1915 143.635 69.9898 143.509C69.7944 143.382 69.6385 143.158 69.5223 142.839L69.4753 142.856C69.4241 143.222 69.2875 143.549 69.0655 143.835C68.8411 144.115 68.5536 144.319 68.2028 144.447C67.8081 144.591 67.4615 144.603 67.163 144.485C66.8645 144.367 66.6537 144.138 66.5306 143.8C66.4759 143.65 66.4485 143.496 66.4484 143.34C66.4547 143.182 66.4945 143.019 66.5679 142.85C66.6413 142.681 66.7535 142.502 66.9044 142.312C67.053 142.116 67.2454 141.905 67.4817 141.677L68.6194 140.592ZM73.5711 140.727C73.6646 140.983 73.745 141.185 73.8122 141.331C73.8772 141.47 73.9496 141.571 74.0293 141.635C74.1131 141.689 74.2096 141.711 74.319 141.7C74.4346 141.686 74.5855 141.652 74.7718 141.599L74.8881 141.918L72.4261 142.814L72.3098 142.495C72.4806 142.418 72.6116 142.349 72.7027 142.288C72.8001 142.224 72.8633 142.144 72.8923 142.049C72.9213 141.953 72.917 141.834 72.8794 141.691C72.848 141.547 72.789 141.355 72.7024 141.117L72.2475 139.868C71.9762 139.122 71.792 138.675 71.6952 138.526C71.6467 138.451 71.5977 138.394 71.5482 138.356C71.5026 138.308 71.4471 138.282 71.3816 138.278C71.3138 138.267 71.2349 138.274 71.1449 138.3C71.0526 138.32 70.9376 138.354 70.7998 138.404L70.6903 138.104L72.0639 137.199L72.5152 138.089L72.5528 138.075C72.6837 137.694 72.8793 137.364 73.1395 137.085C73.3997 136.805 73.7177 136.597 74.0936 136.461C74.3818 136.356 74.662 136.307 74.9343 136.314C75.2065 136.322 75.4349 136.384 75.6195 136.501C75.7784 136.607 75.922 136.767 76.0502 136.983C76.1762 137.193 76.3121 137.498 76.458 137.899L77.0292 139.468C77.1227 139.725 77.2031 139.926 77.2703 140.072C77.3416 140.209 77.4171 140.309 77.4968 140.373C77.5743 140.43 77.6677 140.452 77.7771 140.441C77.8927 140.427 78.0373 140.396 78.211 140.347L78.3273 140.666L75.8935 141.552L75.7772 141.233C75.9504 141.163 76.0825 141.097 76.1736 141.035C76.2687 140.965 76.3276 140.883 76.3504 140.79C76.3794 140.694 76.3751 140.575 76.3375 140.433C76.3038 140.282 76.2448 140.09 76.1604 139.859L75.709 138.618C75.579 138.261 75.4508 137.967 75.3243 137.737C75.1977 137.506 75.0633 137.332 74.9208 137.213C74.7847 137.092 74.6363 137.026 74.4757 137.013C74.3128 136.995 74.1342 137.021 73.94 137.091C73.6581 137.194 73.4255 137.364 73.2421 137.601C73.0628 137.829 72.9541 138.096 72.916 138.4C72.9075 138.474 72.901 138.544 72.8964 138.61C72.8982 138.673 72.9064 138.744 72.9213 138.824C72.9361 138.904 72.9586 138.995 72.9888 139.098C73.0168 139.194 73.0581 139.317 73.1128 139.467L73.5711 140.727ZM83.404 137.935C83.2788 138.293 83.0661 138.615 82.766 138.902C82.4637 139.182 82.1058 139.397 81.6923 139.548C81.3603 139.669 81.0317 139.721 80.7064 139.705C80.3852 139.68 80.0844 139.594 79.8041 139.448C79.5216 139.295 79.2669 139.083 79.0402 138.811C78.8197 138.536 78.6399 138.208 78.5008 137.826C78.3548 137.425 78.2864 137.042 78.2954 136.677C78.3021 136.305 78.3772 135.966 78.5206 135.658C78.6681 135.342 78.8799 135.066 79.156 134.831C79.4362 134.587 79.7705 134.394 80.1589 134.253C80.4032 134.164 80.6336 134.105 80.85 134.076C81.0642 134.041 81.257 134.034 81.4284 134.057C81.6038 134.071 81.7516 134.117 81.8719 134.194C81.9898 134.264 82.0704 134.359 82.1137 134.478C82.1593 134.603 82.1539 134.715 82.0976 134.814C82.0412 134.912 81.941 134.988 81.7969 135.04C81.6842 135.081 81.5822 135.094 81.4911 135.077C81.3977 135.054 81.2618 134.983 81.0835 134.864C80.9057 134.765 80.7471 134.709 80.6075 134.696C80.472 134.675 80.3134 134.697 80.1317 134.763C79.6869 134.925 79.4113 135.22 79.3049 135.649C79.2048 136.076 79.2767 136.624 79.5207 137.295C79.7829 138.015 80.1077 138.518 80.4951 138.802C80.8865 139.079 81.3265 139.128 81.8152 138.95C82.0783 138.854 82.3075 138.714 82.5028 138.529C82.6958 138.338 82.8692 138.084 83.0229 137.765L83.404 137.935ZM88.934 135.816C88.6364 136.655 88.0929 137.218 87.3035 137.506C86.9339 137.64 86.5771 137.703 86.2331 137.693C85.8868 137.677 85.5641 137.6 85.265 137.46C84.9699 137.312 84.707 137.106 84.4763 136.843C84.2432 136.573 84.0583 136.25 83.9215 135.874C83.7824 135.492 83.7162 135.115 83.7229 134.744C83.7297 134.372 83.8036 134.03 83.9448 133.716C84.0922 133.4 84.2986 133.119 84.5639 132.873C84.8356 132.625 85.1593 132.433 85.5352 132.296C86.1428 132.075 86.6731 132.07 87.126 132.281C87.5766 132.486 87.9136 132.896 88.137 133.51C88.169 133.597 88.1696 133.657 88.1388 133.69C88.1143 133.72 88.0394 133.758 87.9141 133.804L84.8226 134.929C84.8283 134.983 84.8417 135.05 84.8628 135.127C84.8816 135.198 84.907 135.278 84.9389 135.365C85.0574 135.691 85.2033 135.975 85.3766 136.217C85.5538 136.45 85.7486 136.635 85.9611 136.77C86.1799 136.904 86.4089 136.987 86.6481 137.021C86.8913 137.046 87.1382 137.012 87.3888 136.921C87.6519 136.825 87.8757 136.68 88.0602 136.485C88.2424 136.284 88.4046 136.009 88.5469 135.659L88.934 135.816ZM86.46 133.843C86.5853 133.798 86.6844 133.758 86.7573 133.724C86.8302 133.691 86.882 133.658 86.9128 133.625C86.9435 133.593 86.9595 133.559 86.9606 133.523C86.9595 133.481 86.9486 133.431 86.9281 133.375C86.8232 133.087 86.646 132.892 86.3965 132.792C86.151 132.682 85.8685 132.686 85.549 132.802C84.8724 133.048 84.5998 133.605 84.731 134.473L86.46 133.843Z" fill="#1A1A23"/>
<path d="M50.2661 150.88L50.1361 150.523C50.3781 150.427 50.5655 150.338 50.6982 150.254C50.8371 150.168 50.9305 150.074 50.9783 149.971C51.0324 149.867 51.0469 149.741 51.0218 149.594C51.0029 149.444 50.9536 149.26 50.8738 149.041L49.28 144.662C49.2002 144.443 49.1238 144.272 49.0509 144.149C48.9819 144.018 48.8993 143.928 48.803 143.878C48.7108 143.819 48.5974 143.8 48.463 143.821C48.3263 143.835 48.1554 143.872 47.9504 143.933L47.8204 143.576L50.6301 142.553C51.4758 142.245 52.1884 142.156 52.7676 142.286C53.3469 142.416 53.7358 142.753 53.9341 143.298C54.0846 143.711 54.0762 144.098 53.9089 144.456C53.7478 144.813 53.4161 145.179 52.9138 145.553L52.9275 145.59C53.1286 145.539 53.3057 145.499 53.4589 145.472C53.6121 145.444 53.7519 145.429 53.8784 145.425C54.0025 145.416 54.1207 145.419 54.2329 145.435C54.3514 145.448 54.469 145.469 54.5858 145.498C55.287 145.689 55.7459 146.083 55.9625 146.678C56.0834 147.01 56.1023 147.354 56.0192 147.711C55.9402 148.059 55.7642 148.375 55.4915 148.659C55.4055 148.754 55.313 148.841 55.2139 148.919C55.1126 148.992 54.9913 149.068 54.85 149.147C54.7065 149.221 54.5368 149.3 54.3409 149.386C54.149 149.463 53.9183 149.55 53.6489 149.648L50.2661 150.88ZM53.5301 149.234C54.664 148.821 55.0542 148.13 54.7008 147.159C54.4431 146.451 53.9717 146.062 53.2865 145.992C53.1703 145.985 53.0595 145.982 52.9541 145.985C52.8488 145.988 52.7311 146.006 52.6013 146.039C52.4692 146.066 52.3143 146.108 52.1366 146.166C51.9651 146.221 51.7541 146.294 51.5035 146.385L51.0807 146.539L51.8434 148.635C51.9825 149.017 52.183 149.256 52.4451 149.352C52.7048 149.442 53.0665 149.403 53.5301 149.234ZM51.4359 145.878C51.6301 145.807 51.7918 145.745 51.9211 145.691C52.0504 145.637 52.1597 145.586 52.2492 145.539C52.3363 145.486 52.4097 145.435 52.4695 145.385C52.5333 145.326 52.5937 145.258 52.6506 145.18C52.8055 144.982 52.8917 144.781 52.9093 144.576C52.9331 144.368 52.8938 144.124 52.7912 143.842C52.611 143.347 52.3601 143.037 52.0382 142.913C51.7203 142.781 51.3046 142.808 50.7909 142.995L50.0673 143.258C49.9608 143.297 49.9269 143.369 49.9657 143.476L50.9097 146.07L51.4359 145.878ZM59.7557 144.276C59.4488 144.544 59.194 144.789 58.9913 145.012C58.7948 145.232 58.6454 145.436 58.5429 145.622C58.4404 145.808 58.3787 145.98 58.3577 146.136C58.3429 146.291 58.3606 146.437 58.4108 146.574C58.486 146.781 58.6165 146.925 58.8022 147.007C58.9879 147.088 59.1935 147.088 59.419 147.006C59.5819 146.946 59.7174 146.851 59.8256 146.719C59.9401 146.585 60.0255 146.43 60.0818 146.254C60.1358 146.071 60.16 145.874 60.1542 145.663C60.1462 145.446 60.1034 145.231 60.0259 145.018L59.7557 144.276ZM59.6086 143.872L59.4684 143.486C59.1902 142.722 58.7254 142.459 58.0739 142.696C57.9674 142.735 57.8799 142.777 57.8116 142.823C57.7433 142.869 57.692 142.923 57.6579 142.986C57.6237 143.048 57.5995 143.127 57.5853 143.225C57.5774 143.32 57.5763 143.434 57.582 143.567C57.5792 143.773 57.5548 143.921 57.5087 144.008C57.4665 144.087 57.3828 144.15 57.2575 144.195C56.9443 144.309 56.7307 144.21 56.6167 143.897C56.5072 143.596 56.5826 143.306 56.8428 143.027C57.1008 142.741 57.5242 142.491 58.113 142.277C58.7395 142.049 59.2253 142 59.5705 142.13C59.9134 142.253 60.1818 142.581 60.3756 143.114L61.1417 145.219C61.4017 145.933 61.6726 146.239 61.9545 146.136C62.0422 146.104 62.1234 146.064 62.198 146.015C62.2703 145.961 62.3175 145.876 62.3397 145.762L62.5534 145.939C62.5306 146.111 62.4373 146.283 62.2733 146.456C62.107 146.623 61.9142 146.747 61.695 146.826C61.4193 146.927 61.1807 146.914 60.979 146.789C60.7836 146.661 60.6278 146.438 60.5115 146.118L60.4645 146.136C60.4134 146.502 60.2768 146.828 60.0547 147.115C59.8304 147.395 59.5428 147.599 59.192 147.727C58.7973 147.87 58.4507 147.883 58.1522 147.765C57.8537 147.646 57.6429 147.418 57.5198 147.08C57.4651 146.929 57.4377 146.776 57.4377 146.62C57.4439 146.462 57.4837 146.298 57.5571 146.13C57.6305 145.961 57.7427 145.782 57.8936 145.592C58.0422 145.396 58.2346 145.184 58.4709 144.956L59.6086 143.872ZM64.498 144.04C64.5847 144.278 64.6636 144.465 64.7348 144.603C64.8061 144.74 64.8847 144.839 64.9707 144.9C65.063 144.958 65.1681 144.984 65.286 144.977C65.4102 144.967 65.5642 144.932 65.7482 144.872L65.8679 145.201L63.2743 146.145L63.1546 145.816C63.3403 145.742 63.4838 145.668 63.5852 145.596C63.6842 145.517 63.7514 145.429 63.7867 145.331C63.8283 145.231 63.8345 145.111 63.8054 144.973C63.7803 144.826 63.7278 144.643 63.648 144.423L62.1739 140.373C62.0508 140.035 61.9419 139.755 61.8473 139.535C61.7567 139.305 61.6872 139.153 61.6387 139.078C61.555 138.946 61.4444 138.876 61.3072 138.869C61.1762 138.86 60.9603 138.91 60.6596 139.02L60.5433 138.7L62.1928 137.706L64.498 144.04ZM68.7665 140.996C68.4595 141.264 68.2047 141.509 68.002 141.732C67.8056 141.952 67.6561 142.156 67.5537 142.342C67.4512 142.528 67.3895 142.7 67.3684 142.857C67.3537 143.011 67.3714 143.157 67.4215 143.295C67.4968 143.502 67.6273 143.646 67.813 143.727C67.9987 143.808 68.2043 143.808 68.4298 143.726C68.5927 143.667 68.7282 143.571 68.8364 143.44C68.9508 143.306 69.0362 143.151 69.0926 142.974C69.1466 142.791 69.1708 142.594 69.165 142.384C69.157 142.167 69.1142 141.952 69.0367 141.739L68.7665 140.996ZM68.6194 140.592L68.4792 140.207C68.201 139.443 67.7361 139.179 67.0846 139.416C66.9781 139.455 66.8907 139.497 66.8224 139.543C66.754 139.59 66.7028 139.644 66.6686 139.706C66.6345 139.768 66.6103 139.848 66.5961 139.945C66.5881 140.04 66.587 140.154 66.5928 140.287C66.59 140.494 66.5655 140.641 66.5194 140.729C66.4773 140.808 66.3936 140.87 66.2683 140.916C65.9551 141.03 65.7415 140.93 65.6274 140.617C65.518 140.316 65.5934 140.026 65.8536 139.747C66.1115 139.462 66.5349 139.212 67.1238 138.997C67.7503 138.769 68.2361 138.72 68.5813 138.85C68.9242 138.974 69.1926 139.302 69.3864 139.834L70.1525 141.939C70.4124 142.653 70.6834 142.959 70.9653 142.856C71.053 142.824 71.1341 142.784 71.2087 142.736C71.2811 142.681 71.3283 142.596 71.3505 142.482L71.5641 142.66C71.5414 142.831 71.448 143.003 71.284 143.177C71.1178 143.344 70.925 143.467 70.7058 143.547C70.4301 143.647 70.1915 143.635 69.9898 143.509C69.7944 143.382 69.6385 143.158 69.5223 142.839L69.4753 142.856C69.4241 143.222 69.2875 143.549 69.0655 143.835C68.8411 144.115 68.5536 144.319 68.2028 144.447C67.8081 144.591 67.4615 144.603 67.163 144.485C66.8645 144.367 66.6537 144.138 66.5306 143.8C66.4759 143.65 66.4485 143.496 66.4484 143.34C66.4547 143.182 66.4945 143.019 66.5679 142.85C66.6413 142.681 66.7535 142.502 66.9044 142.312C67.053 142.116 67.2454 141.905 67.4817 141.677L68.6194 140.592ZM73.5711 140.727C73.6646 140.983 73.745 141.185 73.8122 141.331C73.8772 141.47 73.9496 141.571 74.0293 141.635C74.1131 141.689 74.2096 141.711 74.319 141.7C74.4346 141.686 74.5855 141.652 74.7718 141.599L74.8881 141.918L72.4261 142.814L72.3098 142.495C72.4806 142.418 72.6116 142.349 72.7027 142.288C72.8001 142.224 72.8633 142.144 72.8923 142.049C72.9213 141.953 72.917 141.834 72.8794 141.691C72.848 141.547 72.789 141.355 72.7024 141.117L72.2475 139.868C71.9762 139.122 71.792 138.675 71.6952 138.526C71.6467 138.451 71.5977 138.394 71.5482 138.356C71.5026 138.308 71.4471 138.282 71.3816 138.278C71.3138 138.267 71.2349 138.274 71.1449 138.3C71.0526 138.32 70.9376 138.354 70.7998 138.404L70.6903 138.104L72.0639 137.199L72.5152 138.089L72.5528 138.075C72.6837 137.694 72.8793 137.364 73.1395 137.085C73.3997 136.805 73.7177 136.597 74.0936 136.461C74.3818 136.356 74.662 136.307 74.9343 136.314C75.2065 136.322 75.4349 136.384 75.6195 136.501C75.7784 136.607 75.922 136.767 76.0502 136.983C76.1762 137.193 76.3121 137.498 76.458 137.899L77.0292 139.468C77.1227 139.725 77.2031 139.926 77.2703 140.072C77.3416 140.209 77.4171 140.309 77.4968 140.373C77.5743 140.43 77.6677 140.452 77.7771 140.441C77.8927 140.427 78.0373 140.396 78.211 140.347L78.3273 140.666L75.8935 141.552L75.7772 141.233C75.9504 141.163 76.0825 141.097 76.1736 141.035C76.2687 140.965 76.3276 140.883 76.3504 140.79C76.3794 140.694 76.3751 140.575 76.3375 140.433C76.3038 140.282 76.2448 140.09 76.1604 139.859L75.709 138.618C75.579 138.261 75.4508 137.967 75.3243 137.737C75.1977 137.506 75.0633 137.332 74.9208 137.213C74.7847 137.092 74.6363 137.026 74.4757 137.013C74.3128 136.995 74.1342 137.021 73.94 137.091C73.6581 137.194 73.4255 137.364 73.2421 137.601C73.0628 137.829 72.9541 138.096 72.916 138.4C72.9075 138.474 72.901 138.544 72.8964 138.61C72.8982 138.673 72.9064 138.744 72.9213 138.824C72.9361 138.904 72.9586 138.995 72.9888 139.098C73.0168 139.194 73.0581 139.317 73.1128 139.467L73.5711 140.727ZM83.404 137.935C83.2788 138.293 83.0661 138.615 82.766 138.902C82.4637 139.182 82.1058 139.397 81.6923 139.548C81.3603 139.669 81.0317 139.721 80.7064 139.705C80.3852 139.68 80.0844 139.594 79.8041 139.448C79.5216 139.295 79.2669 139.083 79.0402 138.811C78.8197 138.536 78.6399 138.208 78.5008 137.826C78.3548 137.425 78.2864 137.042 78.2954 136.677C78.3021 136.305 78.3772 135.966 78.5206 135.658C78.6681 135.342 78.8799 135.066 79.156 134.831C79.4362 134.587 79.7705 134.394 80.1589 134.253C80.4032 134.164 80.6336 134.105 80.85 134.076C81.0642 134.041 81.257 134.034 81.4284 134.057C81.6038 134.071 81.7516 134.117 81.8719 134.194C81.9898 134.264 82.0704 134.359 82.1137 134.478C82.1593 134.603 82.1539 134.715 82.0976 134.814C82.0412 134.912 81.941 134.988 81.7969 135.04C81.6842 135.081 81.5822 135.094 81.4911 135.077C81.3977 135.054 81.2618 134.983 81.0835 134.864C80.9057 134.765 80.7471 134.709 80.6075 134.696C80.472 134.675 80.3134 134.697 80.1317 134.763C79.6869 134.925 79.4113 135.22 79.3049 135.649C79.2048 136.076 79.2767 136.624 79.5207 137.295C79.7829 138.015 80.1077 138.518 80.4951 138.802C80.8865 139.079 81.3265 139.128 81.8152 138.95C82.0783 138.854 82.3075 138.714 82.5028 138.529C82.6958 138.338 82.8692 138.084 83.0229 137.765L83.404 137.935ZM88.934 135.816C88.6364 136.655 88.0929 137.218 87.3035 137.506C86.9339 137.64 86.5771 137.703 86.2331 137.693C85.8868 137.677 85.5641 137.6 85.265 137.46C84.9699 137.312 84.707 137.106 84.4763 136.843C84.2432 136.573 84.0583 136.25 83.9215 135.874C83.7824 135.492 83.7162 135.115 83.7229 134.744C83.7297 134.372 83.8036 134.03 83.9448 133.716C84.0922 133.4 84.2986 133.119 84.5639 132.873C84.8356 132.625 85.1593 132.433 85.5352 132.296C86.1428 132.075 86.6731 132.07 87.126 132.281C87.5766 132.486 87.9136 132.896 88.137 133.51C88.169 133.597 88.1696 133.657 88.1388 133.69C88.1143 133.72 88.0394 133.758 87.9141 133.804L84.8226 134.929C84.8283 134.983 84.8417 135.05 84.8628 135.127C84.8816 135.198 84.907 135.278 84.9389 135.365C85.0574 135.691 85.2033 135.975 85.3766 136.217C85.5538 136.45 85.7486 136.635 85.9611 136.77C86.1799 136.904 86.4089 136.987 86.6481 137.021C86.8913 137.046 87.1382 137.012 87.3888 136.921C87.6519 136.825 87.8757 136.68 88.0602 136.485C88.2424 136.284 88.4046 136.009 88.5469 135.659L88.934 135.816ZM86.46 133.843C86.5853 133.798 86.6844 133.758 86.7573 133.724C86.8302 133.691 86.882 133.658 86.9128 133.625C86.9435 133.593 86.9595 133.559 86.9606 133.523C86.9595 133.481 86.9486 133.431 86.9281 133.375C86.8232 133.087 86.646 132.892 86.3965 132.792C86.151 132.682 85.8685 132.686 85.549 132.802C84.8724 133.048 84.5998 133.605 84.731 134.473L86.46 133.843Z" fill="#1A1A23"/>
<path d="M58.4519 160.032L59.0409 161.65C59.418 161.513 59.8043 161.442 60.1998 161.437C60.6009 161.42 60.9757 161.467 61.3242 161.579C61.6695 161.681 61.969 161.836 62.2226 162.041C62.485 162.244 62.6689 162.49 62.7742 162.779C62.8572 163.007 62.8541 163.217 62.7649 163.408C62.6756 163.6 62.517 163.737 62.2889 163.82C62.0784 163.897 61.8926 163.905 61.7315 163.844C61.5705 163.783 61.4173 163.69 61.2722 163.564C61.1326 163.426 60.9986 163.276 60.8701 163.115C60.7385 162.944 60.5957 162.797 60.4418 162.675C60.2935 162.54 60.13 162.445 59.9513 162.391C59.7727 162.337 59.565 162.353 59.3282 162.439L60.4965 165.649C61.1703 165.672 61.7624 165.73 62.2728 165.822C62.7919 165.911 63.2325 166.044 63.5946 166.22C63.9622 166.384 64.2633 166.597 64.4978 166.86C64.7379 167.11 64.9218 167.411 65.0495 167.761C65.1995 168.174 65.2595 168.584 65.2293 168.992C65.1991 169.4 65.0872 169.789 64.8935 170.157C64.6967 170.517 64.4225 170.855 64.0709 171.172C63.7161 171.48 63.2924 171.748 62.7997 171.977L63.5754 174.108L62.6808 174.434L61.9099 172.316C61.4355 172.459 60.9726 172.538 60.5213 172.553C60.0755 172.556 59.668 172.501 59.2988 172.387C58.9296 172.273 58.609 172.102 58.337 171.873C58.065 171.644 57.87 171.368 57.7519 171.043C57.6401 170.736 57.6213 170.48 57.6954 170.274C57.7751 170.057 57.9377 169.903 58.1833 169.814C58.4289 169.724 58.6629 169.753 58.8854 169.901C59.1135 170.036 59.3875 170.339 59.7074 170.808C60.1781 171.501 60.8149 171.736 61.6178 171.513L60.2962 167.882C59.1408 167.846 58.2413 167.667 57.5977 167.345C56.9541 167.023 56.511 166.529 56.2684 165.862C56.1056 165.415 56.0436 164.986 56.0826 164.574C56.1215 164.163 56.2323 163.785 56.4148 163.44C56.5973 163.096 56.8356 162.795 57.1298 162.539C57.4327 162.28 57.7683 162.083 58.1367 161.949L57.5573 160.357L58.4519 160.032ZM63.6277 169.054C63.4936 168.685 63.2515 168.416 62.9014 168.245C62.5481 168.066 62.021 167.955 61.3201 167.912L62.5028 171.162C63.0123 170.897 63.3654 170.584 63.5623 170.225C63.7559 169.856 63.7777 169.466 63.6277 169.054ZM57.4964 164.611C57.7071 165.19 58.3642 165.522 59.4678 165.607L58.4384 162.778C58.2454 162.848 58.074 162.95 57.9241 163.084C57.783 163.215 57.669 163.366 57.5822 163.537C57.4921 163.699 57.438 163.877 57.4197 164.073C57.407 164.256 57.4325 164.435 57.4964 164.611ZM70.2978 166.686C70.4223 167.028 70.536 167.299 70.6389 167.5C70.7474 167.689 70.8723 167.827 71.0134 167.915C71.1602 167.991 71.3336 168.017 71.5337 167.994C71.7427 167.967 72.0066 167.901 72.3255 167.795L72.517 168.321L67.5705 170.122L67.379 169.595C67.7178 169.462 67.9801 169.337 68.1659 169.22C68.3572 169.09 68.4864 168.954 68.5533 168.81C68.6258 168.655 68.6445 168.474 68.6094 168.268C68.5798 168.051 68.5091 167.788 68.3974 167.482L66.6593 162.706C66.4741 162.197 66.3165 161.778 66.1864 161.448C66.0651 161.115 65.9678 160.902 65.8944 160.809C65.7716 160.635 65.575 160.573 65.3047 160.622C65.0431 160.667 64.6624 160.781 64.1625 160.963L63.971 160.437C64.2046 160.342 64.4701 160.225 64.7675 160.087C65.0704 159.937 65.3762 159.781 65.6847 159.619C65.9989 159.445 66.3026 159.27 66.596 159.094C66.8894 158.917 67.1401 158.747 67.3482 158.582L70.2978 166.686ZM74.3019 169.355C74.6606 168.867 74.9033 168.456 75.03 168.122C75.1655 167.784 75.1901 167.497 75.1039 167.26C75.0696 167.303 75.0178 167.351 74.9485 167.406C74.8847 167.449 74.8177 167.484 74.7475 167.509C74.5634 167.576 74.3752 167.55 74.183 167.432C73.9908 167.313 73.8531 167.14 73.7702 166.912C73.6648 166.622 73.6691 166.347 73.7831 166.087C73.9058 165.824 74.1075 165.642 74.3881 165.539C74.6951 165.428 74.9806 165.448 75.2446 165.6C75.5085 165.752 75.7092 166.017 75.8464 166.394C76.0188 166.868 76.0253 167.377 75.866 167.922C75.7099 168.475 75.3827 169.091 74.8846 169.769L74.3019 169.355ZM84.2033 160.209C84.382 160.7 84.4488 161.197 84.4035 161.7C84.3669 162.2 84.2367 162.675 84.0128 163.124C83.7856 163.564 83.4732 163.961 83.0754 164.314C82.6863 164.665 82.2287 164.935 81.7025 165.127C81.1324 165.334 80.5706 165.415 80.0172 165.368C79.4606 165.312 78.9379 165.145 78.449 164.866C77.9689 164.584 77.5318 164.202 77.1377 163.719C76.7493 163.225 76.4321 162.64 76.1863 161.965C75.8958 161.167 75.7457 160.372 75.7359 159.581C75.7229 158.781 75.8311 158.042 76.0606 157.362C76.2868 156.674 76.6247 156.074 77.0743 155.563C77.5239 155.052 78.0688 154.68 78.7091 154.447C79.0599 154.319 79.4031 154.239 79.7388 154.206C80.0713 154.164 80.3712 154.169 80.6383 154.221C80.9142 154.27 81.1515 154.362 81.3501 154.498C81.5455 154.626 81.6815 154.795 81.7581 155.005C81.8507 155.26 81.8452 155.49 81.7416 155.697C81.6348 155.895 81.4498 156.041 81.1867 156.137C81.0025 156.204 80.8434 156.217 80.7095 156.177C80.5755 156.136 80.4483 156.073 80.3279 155.988C80.2162 155.899 80.1057 155.801 79.9964 155.691C79.884 155.573 79.7588 155.475 79.6208 155.396C79.4916 155.314 79.3424 155.259 79.1734 155.231C79.0043 155.203 78.8014 155.232 78.5646 155.319C78.2752 155.424 78.0428 155.618 77.8674 155.9C77.6889 156.174 77.5682 156.511 77.5053 156.911C77.448 157.299 77.4482 157.736 77.5057 158.222C77.5633 158.707 77.6878 159.213 77.8793 159.74L77.9284 159.752C78.0941 159.334 78.3033 158.994 78.556 158.733C78.8175 158.469 79.1587 158.261 79.5797 158.108C80.0621 157.932 80.5413 157.857 81.0174 157.882C81.499 157.896 81.9432 157.997 82.3499 158.187C82.7654 158.373 83.1359 158.641 83.4613 158.989C83.7836 159.329 84.0309 159.735 84.2033 160.209ZM78.6287 161.88C79.0054 162.915 79.4342 163.643 79.9152 164.064C80.4049 164.482 80.9304 164.589 81.4917 164.384C82.0443 164.183 82.3707 163.811 82.471 163.268C82.5713 162.725 82.4491 161.98 82.1044 161.033C81.7915 160.173 81.4281 159.57 81.0142 159.224C80.6058 158.866 80.1604 158.775 79.678 158.951C79.2921 159.091 78.9992 159.337 78.7991 159.688C78.5991 160.039 78.4561 160.533 78.3702 161.17L78.6287 161.88ZM87.7579 151.153C88.3631 150.933 88.9783 150.863 89.6035 150.943C90.2374 151.02 90.8379 151.224 91.405 151.554C91.972 151.884 92.4861 152.327 92.9471 152.885C93.417 153.439 93.7875 154.089 94.0589 154.834C94.3174 155.544 94.4417 156.254 94.4315 156.963C94.4301 157.669 94.3167 158.326 94.0912 158.934C93.8625 159.534 93.5302 160.067 93.0941 160.534C92.6636 160.988 92.1458 161.326 91.5407 161.546C90.9443 161.763 90.3351 161.836 89.7131 161.764C89.0967 161.681 88.5081 161.483 87.9475 161.17C87.3924 160.846 86.8875 160.414 86.4328 159.874C85.9782 159.335 85.6215 158.71 85.363 157.999C85.0916 157.254 84.9535 156.519 84.9485 155.796C84.9435 155.073 85.0477 154.404 85.2613 153.79C85.4835 153.173 85.8039 152.634 86.2224 152.174C86.6497 151.71 87.1615 151.37 87.7579 151.153ZM91.263 160.783C91.5787 160.668 91.8354 160.5 92.0331 160.279C92.2364 160.046 92.3651 159.731 92.4192 159.334C92.4733 158.937 92.4436 158.446 92.3302 157.862C92.2256 157.274 92.0216 156.564 91.7184 155.731C91.4023 154.862 91.0908 154.156 90.7836 153.613C90.482 153.057 90.1797 152.636 89.8766 152.349C89.5735 152.062 89.2676 151.89 88.959 151.833C88.6592 151.774 88.3514 151.801 88.0357 151.916C87.7199 152.031 87.462 152.209 87.2619 152.451C87.0706 152.689 86.9511 153.016 86.9034 153.431C86.8557 153.845 86.8905 154.364 87.0079 154.987C87.1309 155.598 87.3504 156.337 87.6664 157.205C87.9697 158.039 88.2657 158.716 88.5545 159.236C88.8521 159.754 89.1493 160.147 89.446 160.416C89.7427 160.686 90.0394 160.846 90.336 160.897C90.6382 160.936 90.9472 160.898 91.263 160.783ZM96.899 149.748C96.5394 149.879 96.2488 149.995 96.0271 150.095C95.8055 150.196 95.6357 150.302 95.5177 150.415C95.3965 150.518 95.3172 150.641 95.2798 150.784C95.2391 150.918 95.2113 151.087 95.1962 151.291L95.1593 151.886L94.633 152.077L94.2658 148.039L94.8184 147.838C94.8296 147.924 94.8376 148 94.8424 148.068C94.856 148.133 94.8723 148.191 94.8915 148.244C94.9489 148.402 95.0634 148.484 95.2348 148.491C95.4031 148.49 95.6889 148.415 96.0924 148.269L100.276 146.746L100.467 147.272C100.383 148.078 100.311 148.779 100.25 149.377C100.195 149.963 100.149 150.492 100.112 150.962C100.075 151.433 100.047 151.875 100.029 152.289C100.007 152.694 99.9939 153.121 99.9884 153.57C99.9886 154.007 99.9899 154.488 99.9924 155.013C99.995 155.539 100.006 156.156 100.025 156.864C100.035 157.436 99.9745 157.871 99.8439 158.166C99.71 158.454 99.4896 158.653 99.1826 158.765C98.9195 158.86 98.6878 158.865 98.4877 158.779C98.2843 158.684 98.1347 158.505 98.039 158.242C97.9975 158.128 97.9675 158.005 97.9492 157.873C97.9363 157.728 97.9415 157.538 97.9645 157.301C97.9932 157.052 98.0449 156.73 98.1197 156.336C98.1914 155.932 98.2893 155.41 98.4135 154.769C98.572 153.976 98.7002 153.319 98.7981 152.796C98.9016 152.262 98.9876 151.789 99.056 151.376C99.1213 150.955 99.1798 150.557 99.2315 150.18C99.28 149.795 99.3357 149.348 99.3986 148.838L96.899 149.748ZM103.985 155.914C103.883 155.634 103.889 155.363 104.003 155.103C104.122 154.831 104.322 154.644 104.603 154.542C104.892 154.437 105.17 154.45 105.437 154.581C105.7 154.704 105.883 154.906 105.985 155.186C106.084 155.458 106.072 155.726 105.949 155.989C105.823 156.243 105.616 156.423 105.326 156.529C105.045 156.631 104.775 156.625 104.515 156.511C104.261 156.385 104.084 156.186 103.985 155.914ZM106.347 152.015L108.697 143.532L109.947 143.077L112.384 149.773C112.697 149.65 112.947 149.533 113.136 149.425C113.322 149.308 113.456 149.184 113.538 149.055C113.617 148.917 113.65 148.761 113.636 148.588C113.622 148.414 113.569 148.2 113.477 147.945L113.963 147.768L115.127 150.965L114.64 151.142C114.554 150.905 114.462 150.72 114.364 150.587C114.266 150.454 114.145 150.369 114.002 150.331C113.857 150.285 113.678 150.286 113.467 150.333C113.252 150.371 112.985 150.443 112.667 150.549L112.815 150.957C112.927 151.264 113.037 151.527 113.146 151.745C113.265 151.961 113.396 152.131 113.541 152.257C113.683 152.374 113.848 152.444 114.034 152.465C114.23 152.484 114.456 152.451 114.714 152.367L114.905 152.893L110.393 154.536L110.201 154.009C110.505 153.889 110.735 153.756 110.89 153.61C111.051 153.452 111.153 153.281 111.195 153.096C111.246 152.909 111.251 152.704 111.209 152.48C111.167 152.257 111.096 152.005 110.994 151.725L110.831 151.277L106.634 152.805L106.347 152.015ZM108.978 146.186L108.925 146.205L107.451 151.569L110.529 150.448L108.978 146.186ZM117.161 144.966L117.201 144.996C117.293 144.783 117.453 144.581 117.681 144.389C117.914 144.185 118.171 144.032 118.452 143.929C118.899 143.767 119.342 143.7 119.78 143.729C120.214 143.75 120.623 143.849 121.006 144.028C121.389 144.206 121.731 144.464 122.032 144.802C122.331 145.13 122.561 145.518 122.724 145.965C122.916 146.491 122.985 147.022 122.931 147.558C122.875 148.085 122.712 148.592 122.441 149.077C122.177 149.551 121.817 149.98 121.361 150.365C120.913 150.746 120.387 151.047 119.782 151.267C119.37 151.417 118.977 151.511 118.603 151.547C118.226 151.575 117.881 151.557 117.569 151.491C117.266 151.423 117.005 151.305 116.784 151.136C116.561 150.959 116.402 150.739 116.306 150.476C116.204 150.196 116.191 149.957 116.269 149.76C116.351 149.551 116.52 149.4 116.774 149.308C116.967 149.237 117.13 149.233 117.261 149.294C117.393 149.356 117.512 149.451 117.619 149.581C117.726 149.711 117.833 149.856 117.941 150.015C118.054 150.163 118.182 150.295 118.324 150.412C118.466 150.53 118.633 150.608 118.826 150.647C119.028 150.682 119.273 150.648 119.563 150.542C119.905 150.418 120.179 150.229 120.384 149.975C120.599 149.718 120.745 149.412 120.824 149.055C120.903 148.699 120.916 148.297 120.862 147.85C120.809 147.402 120.691 146.929 120.509 146.429C120.244 145.701 119.954 145.205 119.64 144.942C119.323 144.67 118.932 144.619 118.467 144.788C118.081 144.929 117.796 145.142 117.612 145.427C117.433 145.701 117.344 146.071 117.345 146.537C117.349 146.765 117.319 146.929 117.257 147.031C117.2 147.121 117.111 147.189 116.988 147.233C116.742 147.323 116.578 147.254 116.495 147.026C116.482 146.99 116.472 146.935 116.464 146.858L115.96 140.888C116.234 140.878 116.528 140.84 116.842 140.776C117.153 140.702 117.515 140.591 117.927 140.441C118.418 140.262 118.831 140.087 119.166 139.915C119.51 139.74 119.768 139.577 119.941 139.424L120.025 139.409C120.1 139.997 119.981 140.517 119.669 140.969C119.353 141.411 118.871 141.751 118.222 141.987L116.946 142.451L117.161 144.966Z" fill="#1A1A23"/>
</svg>
