<svg width="279" height="171" viewBox="0 0 279 171" fill="none" xmlns="http://www.w3.org/2000/svg">
<rect x="0.5" y="0.5" width="278" height="170" rx="29.5" fill="white" stroke="#E4E4E4"/>
<line x1="3.99642" y1="139.442" x2="274.989" y2="137.5" stroke="#EEEEEE" stroke-dasharray="5 5"/>
<line x1="3.99642" y1="100.442" x2="274.989" y2="98.4998" stroke="#EEEEEE" stroke-dasharray="5 5"/>
<line x1="3.99642" y1="61.4424" x2="274.989" y2="59.4998" stroke="#EEEEEE" stroke-dasharray="5 5"/>
<line x1="3.99642" y1="22.4424" x2="274.989" y2="20.4998" stroke="#EEEEEE" stroke-dasharray="5 5"/>
<path d="M2 79.9245C14.7043 79.2367 27.3687 78.0911 39.8253 81.4626C51.483 84.6179 61.2431 90.7922 69.8594 99.0057C80.5959 109.24 91.5083 116.209 106.47 117.754C129.385 120.12 142.969 104.912 160.045 92.8947C167.887 87.3765 175.896 83.2069 185.807 82.9176C194.873 82.653 204.288 84.1635 212.741 80.1323C220.783 76.2976 233.649 68.4302 235.906 59.222C236.85 55.369 236.261 50.4513 238 47" stroke="#FF7E61" stroke-width="2" stroke-linecap="round"/>
<path d="M238 170L238 31" stroke="#1A1A23" stroke-width="2"/>
<rect x="223" y="21" width="30" height="10" rx="5" fill="#1A1A23"/>
<path d="M232.075 27.48V26.435H231.035V26.185H232.075V25.14H232.335V26.185H233.375V26.435H232.335V27.48H232.075ZM235.124 26.175C234.934 26.2817 234.791 26.4133 234.694 26.57C234.597 26.7233 234.549 26.895 234.549 27.085C234.549 27.3117 234.616 27.4917 234.749 27.625C234.886 27.755 235.069 27.82 235.299 27.82C235.529 27.82 235.711 27.7567 235.844 27.63C235.981 27.5 236.049 27.325 236.049 27.105C236.049 27.0317 236.037 26.9633 236.014 26.9C235.994 26.8367 235.959 26.775 235.909 26.715C235.862 26.655 235.799 26.595 235.719 26.535C235.639 26.475 235.541 26.4117 235.424 26.345L235.124 26.175ZM235.704 25.835C236.237 26.1183 236.504 26.4867 236.504 26.94C236.504 27.0967 236.472 27.2433 236.409 27.38C236.349 27.5133 236.264 27.63 236.154 27.73C236.044 27.83 235.914 27.9083 235.764 27.965C235.614 28.0217 235.452 28.05 235.279 28.05C235.109 28.05 234.951 28.0267 234.804 27.98C234.657 27.93 234.529 27.8633 234.419 27.78C234.312 27.6933 234.227 27.5917 234.164 27.475C234.104 27.3583 234.074 27.2333 234.074 27.1C234.074 26.6833 234.354 26.34 234.914 26.07C234.444 25.8167 234.209 25.4933 234.209 25.1C234.209 24.9633 234.236 24.8333 234.289 24.71C234.346 24.5867 234.426 24.4767 234.529 24.38C234.732 24.1933 234.982 24.1 235.279 24.1C235.539 24.1 235.772 24.17 235.979 24.31C236.102 24.3967 236.196 24.4983 236.259 24.615C236.326 24.7283 236.359 24.8517 236.359 24.985C236.359 25.155 236.307 25.3117 236.204 25.455C236.101 25.5983 235.934 25.725 235.704 25.835ZM235.494 25.73C235.637 25.6333 235.747 25.5233 235.824 25.4C235.904 25.2767 235.944 25.1467 235.944 25.01C235.944 24.9133 235.926 24.8233 235.889 24.74C235.856 24.6567 235.807 24.585 235.744 24.525C235.684 24.4617 235.612 24.4133 235.529 24.38C235.446 24.3433 235.354 24.325 235.254 24.325C235.067 24.325 234.917 24.3783 234.804 24.485C234.694 24.5917 234.639 24.7317 234.639 24.905C234.639 25.0383 234.687 25.16 234.784 25.27C234.881 25.3767 235.039 25.4883 235.259 25.605L235.494 25.73ZM237.346 27.725C237.346 27.6317 237.378 27.5533 237.441 27.49C237.505 27.4267 237.581 27.395 237.671 27.395C237.765 27.395 237.843 27.4267 237.906 27.49C237.97 27.5533 238.001 27.6317 238.001 27.725C238.001 27.815 237.97 27.8917 237.906 27.955C237.843 28.0183 237.765 28.05 237.671 28.05C237.581 28.05 237.505 28.0183 237.441 27.955C237.378 27.8917 237.346 27.815 237.346 27.725ZM239.514 27.51H240.509C240.589 27.51 240.659 27.5033 240.719 27.49C240.779 27.4733 240.833 27.4433 240.879 27.4C240.926 27.3567 240.968 27.2983 241.004 27.225C241.041 27.1483 241.078 27.0517 241.114 26.935H241.299L241.109 28H238.784V27.835C239.164 27.495 239.476 27.1983 239.719 26.945C239.966 26.6883 240.159 26.4583 240.299 26.255C240.439 26.0517 240.536 25.865 240.589 25.695C240.643 25.5217 240.669 25.3467 240.669 25.17C240.669 24.91 240.608 24.705 240.484 24.555C240.364 24.405 240.199 24.33 239.989 24.33C239.789 24.33 239.626 24.395 239.499 24.525C239.376 24.655 239.314 24.8233 239.314 25.03C239.314 25.21 239.363 25.3533 239.459 25.46C239.559 25.5667 239.694 25.62 239.864 25.62C239.848 25.7 239.804 25.765 239.734 25.815C239.664 25.8617 239.578 25.885 239.474 25.885C239.381 25.885 239.294 25.8667 239.214 25.83C239.138 25.7933 239.069 25.7417 239.009 25.675C238.953 25.6083 238.908 25.53 238.874 25.44C238.844 25.3467 238.829 25.245 238.829 25.135C238.829 24.985 238.861 24.8467 238.924 24.72C238.988 24.5933 239.074 24.485 239.184 24.395C239.294 24.3017 239.424 24.2283 239.574 24.175C239.728 24.1217 239.893 24.095 240.069 24.095C240.246 24.095 240.408 24.1217 240.554 24.175C240.701 24.2283 240.828 24.3033 240.934 24.4C241.041 24.4967 241.123 24.6117 241.179 24.745C241.239 24.875 241.269 25.02 241.269 25.18C241.269 25.3867 241.223 25.59 241.129 25.79C241.039 25.9867 240.914 26.1817 240.754 26.375C240.594 26.565 240.408 26.7533 240.194 26.94C239.981 27.1233 239.753 27.305 239.509 27.485L239.514 27.51ZM242.276 28H241.991L244.756 24.15H244.996L242.276 28ZM242.816 24.1C242.896 24.1 242.971 24.1217 243.041 24.165C243.114 24.205 243.177 24.2617 243.231 24.335C243.284 24.405 243.326 24.4883 243.356 24.585C243.389 24.6817 243.406 24.7867 243.406 24.9C243.406 25.01 243.389 25.1133 243.356 25.21C243.326 25.3033 243.284 25.385 243.231 25.455C243.177 25.525 243.114 25.58 243.041 25.62C242.971 25.66 242.896 25.68 242.816 25.68C242.736 25.68 242.659 25.66 242.586 25.62C242.516 25.58 242.454 25.525 242.401 25.455C242.347 25.385 242.304 25.3033 242.271 25.21C242.241 25.1133 242.226 25.01 242.226 24.9C242.226 24.7867 242.241 24.6817 242.271 24.585C242.304 24.4883 242.347 24.405 242.401 24.335C242.454 24.2617 242.516 24.205 242.586 24.165C242.659 24.1217 242.736 24.1 242.816 24.1ZM242.816 25.555C242.912 25.555 242.987 25.51 243.041 25.42C243.094 25.33 243.121 25.16 243.121 24.91C243.121 24.78 243.114 24.6717 243.101 24.585C243.087 24.495 243.067 24.4233 243.041 24.37C243.014 24.3167 242.982 24.28 242.946 24.26C242.909 24.2367 242.866 24.225 242.816 24.225C242.766 24.225 242.722 24.2367 242.686 24.26C242.649 24.28 242.617 24.3167 242.591 24.37C242.564 24.4233 242.544 24.495 242.531 24.585C242.517 24.6717 242.511 24.78 242.511 24.91C242.511 25.16 242.537 25.33 242.591 25.42C242.644 25.51 242.719 25.555 242.816 25.555ZM244.171 26.47C244.251 26.47 244.326 26.4917 244.396 26.535C244.469 26.575 244.532 26.6317 244.586 26.705C244.639 26.775 244.681 26.8583 244.711 26.955C244.744 27.0517 244.761 27.1567 244.761 27.27C244.761 27.38 244.744 27.4833 244.711 27.58C244.681 27.6733 244.639 27.755 244.586 27.825C244.532 27.895 244.469 27.95 244.396 27.99C244.326 28.03 244.251 28.05 244.171 28.05C244.091 28.05 244.014 28.03 243.941 27.99C243.871 27.95 243.809 27.895 243.756 27.825C243.702 27.755 243.659 27.6733 243.626 27.58C243.596 27.4833 243.581 27.38 243.581 27.27C243.581 27.1567 243.596 27.0517 243.626 26.955C243.659 26.8583 243.702 26.775 243.756 26.705C243.809 26.6317 243.871 26.575 243.941 26.535C244.014 26.4917 244.091 26.47 244.171 26.47ZM244.171 27.925C244.267 27.925 244.342 27.88 244.396 27.79C244.449 27.7 244.476 27.53 244.476 27.28C244.476 27.15 244.469 27.0417 244.456 26.955C244.442 26.865 244.422 26.7933 244.396 26.74C244.369 26.6867 244.337 26.65 244.301 26.63C244.264 26.6067 244.221 26.595 244.171 26.595C244.121 26.595 244.077 26.6067 244.041 26.63C244.004 26.65 243.972 26.6867 243.946 26.74C243.919 26.7933 243.899 26.865 243.886 26.955C243.872 27.0417 243.866 27.15 243.866 27.28C243.866 27.53 243.892 27.7 243.946 27.79C243.999 27.88 244.074 27.925 244.171 27.925Z" fill="white"/>
</svg>
