<svg width="353" height="74" viewBox="0 0 353 74" fill="none" xmlns="http://www.w3.org/2000/svg">
<path d="M89.375 47.955C89.375 49.3117 89.5583 50.5767 89.925 51.75C90.3283 52.8867 90.86 53.8767 91.52 54.72C92.18 55.5633 92.9683 56.2233 93.885 56.7C94.8017 57.1767 95.81 57.415 96.91 57.415C99.11 57.415 100.778 56.4067 101.915 54.39C103.052 52.3733 103.62 49.4033 103.62 45.48C103.62 41.6667 103.052 38.77 101.915 36.79C100.815 34.7733 99.1467 33.765 96.91 33.765C95.59 33.765 94.3617 34.1317 93.225 34.865C92.125 35.5617 91.2633 36.5517 90.64 37.835C89.7967 39.595 89.375 41.8133 89.375 44.49V47.955ZM89.265 34.645H89.485C90.4383 33.2517 91.6667 32.1883 93.17 31.455C94.6733 30.685 96.3783 30.3 98.285 30.3C100.228 30.3 102.025 30.7033 103.675 31.51C105.362 32.28 106.81 33.3433 108.02 34.7C109.267 36.0567 110.238 37.6517 110.935 39.485C111.632 41.3183 111.98 43.28 111.98 45.37C111.98 47.57 111.595 49.605 110.825 51.475C110.092 53.3083 109.065 54.9033 107.745 56.26C106.462 57.6167 104.94 58.68 103.18 59.45C101.457 60.22 99.6233 60.605 97.68 60.605C95.6633 60.605 93.7567 60.22 91.96 59.45C90.2 58.6433 88.7883 57.5983 87.725 56.315L83.545 60H81.675V27.275C81.675 23.8283 81.4367 21.4633 80.96 20.18C80.85 19.9233 80.7217 19.7033 80.575 19.52C80.4283 19.3367 80.2083 19.19 79.915 19.08C79.6583 18.9333 79.2917 18.8233 78.815 18.75C78.3383 18.64 77.715 18.53 76.945 18.42V16.55L89.265 14.35V34.645ZM135.181 44.325C132.101 45.7183 129.772 47.02 128.196 48.23C126.656 49.4033 125.886 50.6317 125.886 51.915C125.886 52.9783 126.179 53.8217 126.766 54.445C127.352 55.0683 128.086 55.38 128.966 55.38C129.846 55.38 130.671 55.2333 131.441 54.94C132.211 54.61 132.871 54.1883 133.421 53.675C133.971 53.1617 134.392 52.5567 134.686 51.86C135.016 51.1267 135.181 50.3567 135.181 49.55V44.325ZM135.181 41.41V39.1C135.181 36.9733 134.796 35.4333 134.026 34.48C133.292 33.49 132.137 32.995 130.561 32.995C129.497 32.995 128.691 33.2883 128.141 33.875C127.591 34.425 127.077 35.36 126.601 36.68C126.271 37.5967 125.794 38.3117 125.171 38.825C124.584 39.3383 123.759 39.595 122.696 39.595C121.669 39.595 120.881 39.2833 120.331 38.66C119.781 38.0367 119.506 37.1567 119.506 36.02C119.506 34.26 120.459 32.8667 122.366 31.84C124.309 30.8133 127.224 30.3 131.111 30.3C135.217 30.3 138.151 31.0517 139.911 32.555C141.671 34.0217 142.551 36.4967 142.551 39.98V52.025C142.551 55.1417 143.174 56.7 144.421 56.7C145.117 56.7 145.759 56.4617 146.346 55.985L147.171 57.58C146.657 58.4967 145.851 59.23 144.751 59.78C143.687 60.2933 142.477 60.55 141.121 60.55C139.434 60.55 138.151 60.0367 137.271 59.01C136.391 57.9833 135.951 56.535 135.951 54.665H135.676C134.612 56.5717 133.237 58.02 131.551 59.01C129.864 60 127.939 60.495 125.776 60.495C123.466 60.495 121.614 59.8533 120.221 58.57C118.827 57.25 118.131 55.545 118.131 53.455C118.131 51.8417 118.846 50.3383 120.276 48.945C121.706 47.515 124.089 46.1217 127.426 44.765L135.181 41.41ZM164.178 51.035C164.178 52.5383 164.214 53.73 164.288 54.61C164.398 55.4533 164.599 56.1133 164.893 56.59C165.223 57.03 165.699 57.3233 166.323 57.47C166.983 57.6167 167.863 57.7267 168.963 57.8V60H151.638V57.8C152.701 57.7267 153.544 57.6167 154.168 57.47C154.828 57.3233 155.323 57.03 155.653 56.59C156.019 56.15 156.258 55.5267 156.368 54.72C156.478 53.9133 156.533 52.8133 156.533 51.42V44.545C156.533 42.3817 156.496 40.64 156.423 39.32C156.349 37.9633 156.258 37.0467 156.148 36.57C156.038 36.0933 155.891 35.7083 155.708 35.415C155.524 35.085 155.249 34.8467 154.883 34.7C154.516 34.5167 154.058 34.4067 153.508 34.37C152.958 34.2967 152.261 34.26 151.418 34.26V32.39L162.033 30.3L162.748 35.14H162.968C164.178 33.6 165.608 32.4083 167.258 31.565C168.908 30.7217 170.723 30.3 172.703 30.3C175.049 30.3 176.938 30.63 178.368 31.29C179.834 31.9133 181.136 32.9767 182.273 34.48C182.896 35.3233 183.446 36.4233 183.923 37.78C184.399 39.1 184.638 40.9333 184.638 43.28V51.035C184.638 52.5383 184.674 53.73 184.748 54.61C184.858 55.4533 185.059 56.1133 185.353 56.59C185.683 57.03 186.159 57.3233 186.783 57.47C187.406 57.6167 188.249 57.7267 189.313 57.8V60H172.098V57.8C173.198 57.7633 174.059 57.6717 174.683 57.525C175.343 57.3417 175.838 57.03 176.168 56.59C176.498 56.15 176.718 55.5267 176.828 54.72C176.938 53.8767 176.993 52.7767 176.993 51.42V43.94C176.993 42.07 176.883 40.4933 176.663 39.21C176.443 37.9267 176.076 36.9 175.563 36.13C175.086 35.3233 174.444 34.755 173.638 34.425C172.831 34.0583 171.823 33.875 170.613 33.875C169.439 33.875 168.431 34.205 167.588 34.865C166.744 35.525 166.011 36.4417 165.388 37.615C165.058 38.275 164.764 39.1367 164.508 40.2C164.288 41.2267 164.178 42.3083 164.178 43.445V51.035ZM211.894 57.8C213.067 57.8 213.892 57.7633 214.369 57.69C214.845 57.58 215.084 57.3783 215.084 57.085C215.084 56.865 214.827 56.3333 214.314 55.49C213.837 54.61 213.214 53.6017 212.444 52.465L208.264 46.195L205.514 48.835V50.98C205.514 52.41 205.569 53.565 205.679 54.445C205.789 55.325 205.972 56.0217 206.229 56.535C206.522 57.0117 206.907 57.3417 207.384 57.525C207.897 57.7083 208.539 57.8 209.309 57.8V60H193.084V57.8C194.11 57.7633 194.935 57.6533 195.559 57.47C196.182 57.2867 196.677 56.975 197.044 56.535C197.41 56.0583 197.649 55.4167 197.759 54.61C197.905 53.7667 197.979 52.685 197.979 51.365V28.045C197.979 25.8083 197.942 24.0483 197.869 22.765C197.795 21.4817 197.594 20.5283 197.264 19.905C196.97 19.245 196.494 18.8417 195.834 18.695C195.21 18.5483 194.349 18.475 193.249 18.475V16.44L205.514 14.35V44.93L210.794 39.925C212.7 38.1283 214.057 36.79 214.864 35.91C215.67 34.9933 216.074 34.3333 216.074 33.93C216.074 33.6 215.725 33.38 215.029 33.27C214.369 33.1233 213.122 33.05 211.289 33.05V30.85H226.304V33.05C224.91 33.05 223.682 33.2883 222.619 33.765C221.555 34.2417 220.4 35.0667 219.154 36.24L213.819 41.245L223.334 54.72C224.177 55.8933 225.002 56.7 225.809 57.14C226.615 57.58 227.679 57.8 228.999 57.8V60H211.894V57.8Z" fill="#1A1A23"/>
<path d="M247.517 30.3C249.717 30.3 251.788 30.685 253.732 31.455C255.712 32.1883 257.435 33.215 258.902 34.535C260.405 35.855 261.578 37.4317 262.422 39.265C263.302 41.0617 263.742 43.0417 263.742 45.205C263.742 47.4417 263.302 49.495 262.422 51.365C261.578 53.235 260.405 54.8483 258.902 56.205C257.435 57.5617 255.712 58.625 253.732 59.395C251.788 60.165 249.717 60.55 247.517 60.55C245.353 60.55 243.3 60.1833 241.357 59.45C239.413 58.68 237.708 57.6167 236.242 56.26C234.775 54.9033 233.62 53.29 232.777 51.42C231.933 49.5133 231.512 47.4417 231.512 45.205C231.512 43.0417 231.933 41.0433 232.777 39.21C233.62 37.3767 234.775 35.8 236.242 34.48C237.708 33.16 239.413 32.1333 241.357 31.4C243.3 30.6667 245.353 30.3 247.517 30.3ZM247.517 33.49C246.417 33.49 245.408 33.7833 244.492 34.37C243.575 34.92 242.787 35.7083 242.127 36.735C241.503 37.7617 241.008 39.0083 240.642 40.475C240.312 41.905 240.147 43.5 240.147 45.26C240.147 47.0933 240.312 48.7433 240.642 50.21C241.008 51.6767 241.503 52.9233 242.127 53.95C242.787 54.9767 243.557 55.7833 244.437 56.37C245.353 56.92 246.38 57.195 247.517 57.195C248.653 57.195 249.68 56.92 250.597 56.37C251.55 55.7833 252.357 54.9767 253.017 53.95C253.677 52.8867 254.19 51.6217 254.557 50.155C254.923 48.6883 255.107 47.0567 255.107 45.26C255.107 43.5 254.923 41.905 254.557 40.475C254.19 39.045 253.677 37.8167 253.017 36.79C252.357 35.7267 251.55 34.92 250.597 34.37C249.68 33.7833 248.653 33.49 247.517 33.49ZM282.12 51.035C282.12 52.5383 282.157 53.73 282.23 54.61C282.34 55.4533 282.542 56.1133 282.835 56.59C283.165 57.03 283.642 57.3233 284.265 57.47C284.925 57.6167 285.805 57.7267 286.905 57.8V60H269.58V57.8C270.644 57.7267 271.487 57.6167 272.11 57.47C272.77 57.3233 273.265 57.03 273.595 56.59C273.962 56.15 274.2 55.5267 274.31 54.72C274.42 53.9133 274.475 52.8133 274.475 51.42V44.545C274.475 42.3817 274.439 40.64 274.365 39.32C274.292 37.9633 274.2 37.0467 274.09 36.57C273.98 36.0933 273.834 35.7083 273.65 35.415C273.467 35.085 273.192 34.8467 272.825 34.7C272.459 34.5167 272 34.4067 271.45 34.37C270.9 34.2967 270.204 34.26 269.36 34.26V32.39L279.975 30.3L280.69 35.14H280.91C282.12 33.6 283.55 32.4083 285.2 31.565C286.85 30.7217 288.665 30.3 290.645 30.3C292.992 30.3 294.88 30.63 296.31 31.29C297.777 31.9133 299.079 32.9767 300.215 34.48C300.839 35.3233 301.389 36.4233 301.865 37.78C302.342 39.1 302.58 40.9333 302.58 43.28V51.035C302.58 52.5383 302.617 53.73 302.69 54.61C302.8 55.4533 303.002 56.1133 303.295 56.59C303.625 57.03 304.102 57.3233 304.725 57.47C305.349 57.6167 306.192 57.7267 307.255 57.8V60H290.04V57.8C291.14 57.7633 292.002 57.6717 292.625 57.525C293.285 57.3417 293.78 57.03 294.11 56.59C294.44 56.15 294.66 55.5267 294.77 54.72C294.88 53.8767 294.935 52.7767 294.935 51.42V43.94C294.935 42.07 294.825 40.4933 294.605 39.21C294.385 37.9267 294.019 36.9 293.505 36.13C293.029 35.3233 292.387 34.755 291.58 34.425C290.774 34.0583 289.765 33.875 288.555 33.875C287.382 33.875 286.374 34.205 285.53 34.865C284.687 35.525 283.954 36.4417 283.33 37.615C283 38.275 282.707 39.1367 282.45 40.2C282.23 41.2267 282.12 42.3083 282.12 43.445V51.035Z" fill="#FF7E61"/>
<circle cx="34.2758" cy="34.2758" r="34.2758" fill="#1A1A23"/>
<ellipse cx="58.7579" cy="12.2413" rx="12.2413" ry="12.2413" fill="#F5F5F5"/>
<path d="M71 12.2413C71 19.002 64.8794 24.4827 62.4311 23.2586C61.207 15.9137 59.9828 13.4655 47.7415 9.79307C45.2932 7.34481 51.998 0 58.7587 0C65.5194 0 71 5.48064 71 12.2413Z" fill="#FF7E61"/>
</svg>
