<svg width="30" height="30" viewBox="0 0 30 30" fill="none" xmlns="http://www.w3.org/2000/svg">
<rect x="1" y="1" width="28" height="28" rx="4" fill="#F8F8F8" stroke="#E4E4E4" stroke-width="2"/>
<g clip-path="url(#clip0_108_66)">
<path d="M19.2151 14.0262C19.1811 13.9214 19.0904 13.8449 18.9813 13.8291L16.4097 13.4554L15.2596 11.1252C15.2109 11.0262 15.1101 10.9636 14.9999 10.9636C14.8897 10.9636 14.7889 11.0262 14.7402 11.1252L13.5901 13.4554L11.0185 13.8291C10.9095 13.8449 10.8188 13.9213 10.7847 14.0262C10.7506 14.131 10.7791 14.2461 10.858 14.3231L12.7189 16.1369L12.2796 18.6981C12.2609 18.8067 12.3055 18.9166 12.3947 18.9814C12.4839 19.0462 12.6022 19.0548 12.6998 19.0034L15 17.7942L17.3 19.0034C17.3424 19.0257 17.3887 19.0367 17.4348 19.0367C17.4948 19.0367 17.5547 19.018 17.6051 18.9814C17.6942 18.9166 17.7389 18.8067 17.7203 18.6981L17.5554 17.7366L17.4198 16.9461L17.281 16.1369L19.1418 14.3231C19.2208 14.2461 19.2492 14.131 19.2151 14.0262Z" fill="#FF7E61"/>
<g opacity="0.1">
<path d="M12.9394 18.7903C12.8502 18.7255 12.8055 18.6157 12.8242 18.507L13.2635 15.9458L11.4027 14.132C11.3237 14.055 11.2953 13.9399 11.3293 13.8351C11.3357 13.8156 11.3446 13.7974 11.3547 13.78L11.0186 13.8289C10.9096 13.8447 10.8189 13.9211 10.7848 14.026C10.7508 14.1308 10.7792 14.2459 10.8581 14.3229L12.719 16.1367L12.2797 18.6979C12.261 18.8066 12.3057 18.9164 12.3948 18.9812C12.484 19.046 12.6023 19.0546 12.6999 19.0032L13.0249 18.8324C12.9948 18.8231 12.9657 18.8095 12.9394 18.7903Z" fill="#231F20"/>
</g>
<path d="M8.45256 15.2528H7.25262C7.11312 15.2528 7 15.1397 7 15.0002C7 14.8607 7.11312 14.7476 7.25262 14.7476H8.45256C8.59209 14.7476 8.70519 14.8607 8.70519 15.0002C8.70519 15.1397 8.59209 15.2528 8.45256 15.2528Z" fill="#FF7E61"/>
<path d="M22.7474 15.2528H21.5474C21.4079 15.2528 21.2948 15.1397 21.2948 15.0002C21.2948 14.8607 21.4079 14.7476 21.5474 14.7476H22.7474C22.8869 14.7476 23 14.8607 23 15.0002C23 15.1397 22.8869 15.2528 22.7474 15.2528Z" fill="#FF7E61"/>
<path d="M9.52181 20.7309C9.45712 20.7309 9.3925 20.7062 9.34315 20.6569C9.2445 20.5582 9.2445 20.3983 9.34318 20.2996L10.1917 19.4512C10.2903 19.3525 10.4503 19.3525 10.5489 19.4512C10.6476 19.5498 10.6476 19.7098 10.5489 19.8084L9.7004 20.6569C9.65112 20.7062 9.58643 20.7309 9.52181 20.7309Z" fill="#FF7E61"/>
<path d="M19.6296 10.623C19.5649 10.623 19.5003 10.5984 19.4509 10.549C19.3523 10.4504 19.3523 10.2904 19.4509 10.1917L20.2994 9.34329C20.3981 9.2446 20.5581 9.24463 20.6567 9.34329C20.7554 9.44195 20.7554 9.60192 20.6567 9.70054L19.8083 10.549C19.7589 10.5984 19.6943 10.623 19.6296 10.623Z" fill="#FF7E61"/>
<path d="M14.9999 23.0001C14.8604 23.0001 14.7473 22.887 14.7473 22.7475V21.5475C14.7473 21.408 14.8604 21.2949 14.9999 21.2949C15.1395 21.2949 15.2526 21.408 15.2526 21.5475V22.7475C15.2526 22.887 15.1395 23.0001 14.9999 23.0001Z" fill="#FF7E61"/>
<path d="M14.9999 8.70543C14.8604 8.70543 14.7473 8.59231 14.7473 8.45281V7.25287C14.7473 7.11334 14.8604 7.00024 14.9999 7.00024C15.1395 7.00024 15.2526 7.11337 15.2526 7.25287V8.45281C15.2526 8.59234 15.1395 8.70543 14.9999 8.70543Z" fill="#FF7E61"/>
<path d="M20.4781 20.7309C20.4135 20.7309 20.3488 20.7063 20.2994 20.6569L19.4509 19.8084C19.3523 19.7098 19.3523 19.5498 19.4509 19.4512C19.5496 19.3525 19.7096 19.3525 19.8082 19.4512L20.6567 20.2996C20.7554 20.3983 20.7554 20.5583 20.6567 20.6569C20.6074 20.7063 20.5428 20.7309 20.4781 20.7309Z" fill="#FF7E61"/>
<path d="M10.3703 10.623C10.3056 10.623 10.241 10.5983 10.1916 10.549L9.34315 9.70053C9.2445 9.60187 9.2445 9.4419 9.34318 9.34328C9.44184 9.24462 9.60178 9.24462 9.70043 9.34328L10.5489 10.1918C10.6476 10.2904 10.6476 10.4504 10.5489 10.5491C10.4996 10.5983 10.4349 10.623 10.3703 10.623Z" fill="#FF7E61"/>
</g>
<defs>
<clipPath id="clip0_108_66">
<rect width="16" height="16" fill="white" transform="translate(7 7)"/>
</clipPath>
</defs>
</svg>
