<svg width="241" height="101" viewBox="0 0 241 101" fill="none" xmlns="http://www.w3.org/2000/svg">
<path d="M5.98739 2C0.656754 5.09092 1.46959 11.909 3.81695 15.5929C9.02475 23.7659 32.406 27.2438 46.2956 29.2662C70.7533 32.8272 96.5502 32.0621 121.641 31.84C141.01 31.6685 191.66 29.5932 194.428 44.0655C197.174 58.4219 167.771 66.9778 144.663 68.5568C126.909 69.77 108.129 69.5232 90.4797 67.9536C84.1022 67.3864 71.3173 66.195 67.4575 62.6451C65.068 60.4476 76.8214 60.5457 81.6428 60.8756C101.539 62.2372 120.805 65.6659 138.927 70.0448C173.712 78.4499 203.694 91.2506 239 99" stroke="#FF7E61" stroke-width="4" stroke-linecap="round"/>
</svg>
