<svg width="279" height="171" viewBox="0 0 279 171" fill="none" xmlns="http://www.w3.org/2000/svg">
<rect x="0.5" y="0.5" width="278" height="170" rx="29.5" fill="white" stroke="#E4E4E4"/>
<path d="M98 47C98 41.4772 102.477 37 108 37H232C237.523 37 242 41.4772 242 47V70H108C102.477 70 98 65.5228 98 60V47Z" fill="#FF7E61"/>
<rect x="17" y="106" width="43" height="18" rx="9" fill="#1A1A23"/>
<path d="M114.442 56.41C114.442 56.6633 114.455 56.87 114.482 57.03C114.509 57.1833 114.559 57.3033 114.632 57.39C114.712 57.47 114.822 57.5267 114.962 57.56C115.109 57.5933 115.299 57.6133 115.532 57.62V58H112.292V57.62C112.525 57.6133 112.712 57.5933 112.852 57.56C112.999 57.5267 113.112 57.47 113.192 57.39C113.272 57.31 113.325 57.1967 113.352 57.05C113.379 56.9033 113.392 56.7133 113.392 56.48V54.31H109.342V56.41C109.342 56.6633 109.355 56.87 109.382 57.03C109.409 57.1833 109.459 57.3033 109.532 57.39C109.612 57.47 109.722 57.5267 109.862 57.56C110.009 57.5933 110.199 57.6133 110.432 57.62V58H107.192V57.62C107.425 57.6133 107.612 57.5933 107.752 57.56C107.899 57.5267 108.012 57.47 108.092 57.39C108.172 57.31 108.225 57.1967 108.252 57.05C108.279 56.9033 108.292 56.7133 108.292 56.48V51.82C108.292 51.5867 108.279 51.4 108.252 51.26C108.232 51.1133 108.185 51 108.112 50.92C108.045 50.8333 107.945 50.7767 107.812 50.75C107.679 50.7167 107.505 50.6933 107.292 50.68V50.3H110.332V50.68C110.119 50.6867 109.945 50.7067 109.812 50.74C109.685 50.7733 109.585 50.8333 109.512 50.92C109.445 51.0067 109.399 51.1267 109.372 51.28C109.352 51.4333 109.342 51.6367 109.342 51.89V53.81H113.392V51.82C113.392 51.5867 113.379 51.4 113.352 51.26C113.332 51.1133 113.285 51 113.212 50.92C113.145 50.8333 113.045 50.7767 112.912 50.75C112.779 50.7167 112.605 50.6933 112.392 50.68V50.3H115.432V50.68C115.219 50.6867 115.045 50.7067 114.912 50.74C114.785 50.7733 114.685 50.8333 114.612 50.92C114.545 51.0067 114.499 51.1267 114.472 51.28C114.452 51.4333 114.442 51.6367 114.442 51.89V56.41ZM119.367 52.6C119.747 52.6 120.107 52.67 120.447 52.81C120.787 52.9433 121.083 53.13 121.337 53.37C121.597 53.61 121.8 53.8967 121.947 54.23C122.1 54.5567 122.177 54.9167 122.177 55.31C122.177 55.7167 122.1 56.09 121.947 56.43C121.8 56.77 121.597 57.0633 121.337 57.31C121.083 57.5567 120.787 57.75 120.447 57.89C120.107 58.03 119.747 58.1 119.367 58.1C118.993 58.1 118.637 58.0333 118.297 57.9C117.963 57.76 117.67 57.5667 117.417 57.32C117.163 57.0733 116.963 56.78 116.817 56.44C116.67 56.0933 116.597 55.7167 116.597 55.31C116.597 54.9167 116.67 54.5533 116.817 54.22C116.963 53.8867 117.163 53.6 117.417 53.36C117.67 53.12 117.963 52.9333 118.297 52.8C118.637 52.6667 118.993 52.6 119.367 52.6ZM119.367 53.08C119.12 53.08 118.893 53.1333 118.687 53.24C118.487 53.3467 118.313 53.5 118.167 53.7C118.027 53.8933 117.917 54.13 117.837 54.41C117.763 54.6833 117.727 54.9867 117.727 55.32C117.727 55.6667 117.763 55.98 117.837 56.26C117.917 56.54 118.027 56.78 118.167 56.98C118.313 57.1733 118.487 57.3233 118.687 57.43C118.887 57.5367 119.113 57.59 119.367 57.59C119.62 57.59 119.85 57.5367 120.057 57.43C120.263 57.3233 120.44 57.17 120.587 56.97C120.733 56.77 120.847 56.53 120.927 56.25C121.007 55.97 121.047 55.66 121.047 55.32C121.047 54.9867 121.007 54.6833 120.927 54.41C120.847 54.1367 120.733 53.9033 120.587 53.71C120.44 53.51 120.263 53.3567 120.057 53.25C119.85 53.1367 119.62 53.08 119.367 53.08ZM125.644 58.1H125.274L123.974 53.94C123.914 53.7533 123.858 53.6033 123.804 53.49C123.751 53.3767 123.688 53.2867 123.614 53.22C123.541 53.1533 123.454 53.11 123.354 53.09C123.254 53.0633 123.131 53.05 122.984 53.05V52.7H125.634V53.05C125.374 53.05 125.191 53.08 125.084 53.14C124.978 53.2 124.924 53.3033 124.924 53.45C124.924 53.5167 124.934 53.5967 124.954 53.69C124.974 53.7767 125.001 53.8867 125.034 54.02L125.714 56.41H125.754L127.224 52.7H127.534L128.864 56.41H128.904L129.504 54.79C129.584 54.57 129.651 54.3867 129.704 54.24C129.758 54.0867 129.798 53.96 129.824 53.86C129.858 53.7533 129.881 53.6667 129.894 53.6C129.908 53.5333 129.914 53.47 129.914 53.41C129.914 53.2633 129.871 53.1667 129.784 53.12C129.698 53.0733 129.518 53.05 129.244 53.05V52.7H131.244V53.05C131.144 53.05 131.058 53.0667 130.984 53.1C130.918 53.1267 130.848 53.1833 130.774 53.27C130.708 53.3567 130.638 53.48 130.564 53.64C130.491 53.8 130.401 54.01 130.294 54.27L128.744 58.1H128.374L127.154 54.41H127.114L125.644 58.1ZM137.265 58.1H136.895L135.595 53.94C135.535 53.7533 135.478 53.6033 135.425 53.49C135.371 53.3767 135.308 53.2867 135.235 53.22C135.161 53.1533 135.075 53.11 134.975 53.09C134.875 53.0633 134.751 53.05 134.605 53.05V52.7H137.255V53.05C136.995 53.05 136.811 53.08 136.705 53.14C136.598 53.2 136.545 53.3033 136.545 53.45C136.545 53.5167 136.555 53.5967 136.575 53.69C136.595 53.7767 136.621 53.8867 136.655 54.02L137.335 56.41H137.375L138.845 52.7H139.155L140.485 56.41H140.525L141.125 54.79C141.205 54.57 141.271 54.3867 141.325 54.24C141.378 54.0867 141.418 53.96 141.445 53.86C141.478 53.7533 141.501 53.6667 141.515 53.6C141.528 53.5333 141.535 53.47 141.535 53.41C141.535 53.2633 141.491 53.1667 141.405 53.12C141.318 53.0733 141.138 53.05 140.865 53.05V52.7H142.865V53.05C142.765 53.05 142.678 53.0667 142.605 53.1C142.538 53.1267 142.468 53.1833 142.395 53.27C142.328 53.3567 142.258 53.48 142.185 53.64C142.111 53.8 142.021 54.01 141.915 54.27L140.365 58.1H139.995L138.775 54.41H138.735L137.265 58.1ZM146.793 55.04C146.413 55.1867 146.089 55.33 145.823 55.47C145.563 55.61 145.353 55.75 145.193 55.89C145.033 56.03 144.916 56.17 144.843 56.31C144.776 56.45 144.743 56.5933 144.743 56.74C144.743 56.96 144.816 57.14 144.963 57.28C145.109 57.42 145.303 57.49 145.543 57.49C145.716 57.49 145.876 57.4467 146.023 57.36C146.176 57.2733 146.309 57.1567 146.423 57.01C146.536 56.8567 146.626 56.68 146.693 56.48C146.759 56.2733 146.793 56.0567 146.793 55.83V55.04ZM146.793 54.61V54.2C146.793 53.3867 146.446 52.98 145.753 52.98C145.639 52.98 145.543 52.99 145.463 53.01C145.383 53.03 145.316 53.0633 145.263 53.11C145.209 53.1567 145.159 53.2233 145.113 53.31C145.073 53.3967 145.033 53.5033 144.993 53.63C144.919 53.8233 144.846 53.9533 144.773 54.02C144.706 54.08 144.606 54.11 144.473 54.11C144.139 54.11 143.973 53.9433 143.973 53.61C143.973 53.29 144.143 53.0433 144.483 52.87C144.823 52.69 145.306 52.6 145.933 52.6C146.599 52.6 147.073 52.72 147.353 52.96C147.633 53.1933 147.773 53.5933 147.773 54.16V56.4C147.773 57.16 147.923 57.54 148.223 57.54C148.316 57.54 148.406 57.53 148.493 57.51C148.579 57.4833 148.653 57.42 148.713 57.32L148.853 57.56C148.773 57.7133 148.626 57.8433 148.413 57.95C148.199 58.05 147.976 58.1 147.743 58.1C147.449 58.1 147.229 58.0067 147.083 57.82C146.943 57.6333 146.873 57.37 146.873 57.03H146.823C146.649 57.3567 146.409 57.6167 146.103 57.81C145.796 57.9967 145.456 58.09 145.083 58.09C144.663 58.09 144.333 57.9833 144.093 57.77C143.853 57.5567 143.733 57.27 143.733 56.91C143.733 56.75 143.759 56.5967 143.813 56.45C143.873 56.3033 143.966 56.1633 144.093 56.03C144.219 55.8967 144.386 55.7667 144.593 55.64C144.799 55.5067 145.053 55.3733 145.353 55.24L146.793 54.61ZM150.1 58H149.88V56.28H150.13C150.39 57.22 150.863 57.69 151.55 57.69C151.816 57.69 152.026 57.6267 152.18 57.5C152.34 57.3667 152.42 57.1667 152.42 56.9C152.42 56.8 152.403 56.7167 152.37 56.65C152.343 56.5767 152.286 56.5033 152.2 56.43C152.12 56.35 152.003 56.26 151.85 56.16C151.703 56.06 151.506 55.9333 151.26 55.78C151.033 55.64 150.836 55.51 150.67 55.39C150.503 55.27 150.363 55.15 150.25 55.03C150.136 54.9033 150.05 54.77 149.99 54.63C149.936 54.49 149.91 54.3267 149.91 54.14C149.91 53.9133 149.946 53.7067 150.02 53.52C150.1 53.3267 150.206 53.1633 150.34 53.03C150.473 52.8967 150.63 52.7933 150.81 52.72C150.99 52.64 151.186 52.6 151.4 52.6C151.58 52.6 151.766 52.63 151.96 52.69C152.153 52.7433 152.323 52.8167 152.47 52.91L152.67 52.7H152.86V54.14H152.6C152.453 53.7333 152.293 53.4433 152.12 53.27C151.946 53.0967 151.733 53.01 151.48 53.01C151.253 53.01 151.07 53.07 150.93 53.19C150.796 53.31 150.73 53.4767 150.73 53.69C150.73 53.8033 150.746 53.9033 150.78 53.99C150.82 54.07 150.88 54.15 150.96 54.23C151.04 54.31 151.14 54.3933 151.26 54.48C151.386 54.56 151.536 54.6533 151.71 54.76C151.996 54.94 152.24 55.1 152.44 55.24C152.646 55.38 152.813 55.52 152.94 55.66C153.066 55.7933 153.16 55.9333 153.22 56.08C153.28 56.2267 153.31 56.3933 153.31 56.58C153.31 57.0533 153.156 57.4267 152.85 57.7C152.543 57.9667 152.14 58.1 151.64 58.1C151.12 58.1 150.673 57.95 150.3 57.65L150.1 58ZM159.662 56.4C159.662 56.68 159.668 56.9 159.682 57.06C159.695 57.22 159.728 57.3433 159.782 57.43C159.842 57.51 159.925 57.5633 160.032 57.59C160.138 57.6167 160.288 57.6367 160.482 57.65V58H157.822V57.65C158.015 57.6367 158.168 57.6167 158.282 57.59C158.395 57.5633 158.482 57.51 158.542 57.43C158.602 57.35 158.638 57.2367 158.652 57.09C158.672 56.9367 158.682 56.7333 158.682 56.48V55.2C158.682 54.82 158.675 54.5033 158.662 54.25C158.655 53.9967 158.638 53.8233 158.612 53.73C158.592 53.6433 158.568 53.5767 158.542 53.53C158.515 53.4767 158.472 53.4367 158.412 53.41C158.352 53.3767 158.272 53.3567 158.172 53.35C158.078 53.3367 157.955 53.33 157.802 53.33V52.98L159.432 52.6L159.562 53.6H159.612C159.912 53.26 160.225 53.01 160.552 52.85C160.885 52.6833 161.252 52.6 161.652 52.6C162.072 52.6 162.425 52.6867 162.712 52.86C162.998 53.0267 163.198 53.27 163.312 53.59H163.352C163.598 53.2767 163.898 53.0333 164.252 52.86C164.605 52.6867 164.982 52.6 165.382 52.6C165.695 52.6 165.978 52.6533 166.232 52.76C166.492 52.86 166.688 53 166.822 53.18C166.942 53.3333 167.025 53.5367 167.072 53.79C167.125 54.0367 167.152 54.3767 167.152 54.81V56.4C167.152 56.6733 167.158 56.89 167.172 57.05C167.192 57.21 167.228 57.3333 167.282 57.42C167.335 57.5067 167.415 57.5633 167.522 57.59C167.635 57.6167 167.788 57.6367 167.982 57.65V58H165.322V57.65C165.508 57.6433 165.658 57.6267 165.772 57.6C165.885 57.5667 165.972 57.51 166.032 57.43C166.092 57.3433 166.128 57.2267 166.142 57.08C166.162 56.9333 166.172 56.7333 166.172 56.48V55.22C166.172 54.84 166.152 54.52 166.112 54.26C166.072 53.9933 166.005 53.78 165.912 53.62C165.818 53.4533 165.695 53.3333 165.542 53.26C165.395 53.1867 165.215 53.15 165.002 53.15C164.708 53.15 164.432 53.2333 164.172 53.4C163.918 53.56 163.718 53.7767 163.572 54.05C163.538 54.1167 163.508 54.1833 163.482 54.25C163.462 54.31 163.445 54.38 163.432 54.46C163.418 54.5333 163.408 54.6233 163.402 54.73C163.402 54.8367 163.402 54.97 163.402 55.13V56.4C163.402 56.6733 163.408 56.89 163.422 57.05C163.435 57.21 163.468 57.3333 163.522 57.42C163.582 57.5067 163.668 57.5633 163.782 57.59C163.895 57.6167 164.048 57.6367 164.242 57.65V58H161.582V57.65C161.768 57.6367 161.918 57.6167 162.032 57.59C162.145 57.5633 162.228 57.51 162.282 57.43C162.342 57.35 162.378 57.2367 162.392 57.09C162.412 56.9367 162.422 56.7333 162.422 56.48V55.22C162.422 54.8333 162.402 54.51 162.362 54.25C162.322 53.9833 162.255 53.77 162.162 53.61C162.075 53.4433 161.958 53.3267 161.812 53.26C161.665 53.1867 161.485 53.15 161.272 53.15C160.972 53.15 160.688 53.2333 160.422 53.4C160.162 53.56 159.965 53.7767 159.832 54.05C159.798 54.1167 159.768 54.1833 159.742 54.25C159.722 54.31 159.705 54.38 159.692 54.46C159.678 54.5333 159.668 54.6233 159.662 54.73C159.662 54.8367 159.662 54.97 159.662 55.13V56.4ZM171.209 59.57C170.902 60.2567 170.425 60.6 169.779 60.6C169.359 60.6 169.149 60.4433 169.149 60.13C169.149 59.9633 169.205 59.84 169.319 59.76C169.439 59.6867 169.655 59.6233 169.969 59.57C170.109 59.55 170.229 59.52 170.329 59.48C170.429 59.4467 170.519 59.4 170.599 59.34C170.679 59.2867 170.749 59.2167 170.809 59.13C170.875 59.0433 170.939 58.9367 170.999 58.81L171.349 58.11L169.429 53.94C169.342 53.7533 169.265 53.6067 169.199 53.5C169.139 53.3867 169.072 53.3 168.999 53.24C168.932 53.1733 168.855 53.13 168.769 53.11C168.682 53.0833 168.572 53.0633 168.439 53.05V52.7H171.089V53.05C170.642 53.05 170.419 53.16 170.419 53.38C170.419 53.4667 170.445 53.6033 170.499 53.79C170.552 53.9767 170.619 54.1667 170.699 54.36L171.799 57.02H171.849L172.759 54.77C172.845 54.55 172.915 54.37 172.969 54.23C173.029 54.09 173.072 53.9767 173.099 53.89C173.132 53.7967 173.152 53.72 173.159 53.66C173.172 53.6 173.179 53.5433 173.179 53.49C173.179 53.3167 173.129 53.2 173.029 53.14C172.935 53.08 172.752 53.05 172.479 53.05V52.7H174.679V53.05C174.552 53.05 174.445 53.0667 174.359 53.1C174.272 53.1333 174.182 53.21 174.089 53.33C174.002 53.4433 173.902 53.61 173.789 53.83C173.682 54.05 173.549 54.3467 173.389 54.72L171.209 59.57ZM179.014 58H178.794V56.28H179.044C179.304 57.22 179.777 57.69 180.464 57.69C180.73 57.69 180.94 57.6267 181.094 57.5C181.254 57.3667 181.334 57.1667 181.334 56.9C181.334 56.8 181.317 56.7167 181.284 56.65C181.257 56.5767 181.2 56.5033 181.114 56.43C181.034 56.35 180.917 56.26 180.764 56.16C180.617 56.06 180.42 55.9333 180.174 55.78C179.947 55.64 179.75 55.51 179.584 55.39C179.417 55.27 179.277 55.15 179.164 55.03C179.05 54.9033 178.964 54.77 178.904 54.63C178.85 54.49 178.824 54.3267 178.824 54.14C178.824 53.9133 178.86 53.7067 178.934 53.52C179.014 53.3267 179.12 53.1633 179.254 53.03C179.387 52.8967 179.544 52.7933 179.724 52.72C179.904 52.64 180.1 52.6 180.314 52.6C180.494 52.6 180.68 52.63 180.874 52.69C181.067 52.7433 181.237 52.8167 181.384 52.91L181.584 52.7H181.774V54.14H181.514C181.367 53.7333 181.207 53.4433 181.034 53.27C180.86 53.0967 180.647 53.01 180.394 53.01C180.167 53.01 179.984 53.07 179.844 53.19C179.71 53.31 179.644 53.4767 179.644 53.69C179.644 53.8033 179.66 53.9033 179.694 53.99C179.734 54.07 179.794 54.15 179.874 54.23C179.954 54.31 180.054 54.3933 180.174 54.48C180.3 54.56 180.45 54.6533 180.624 54.76C180.91 54.94 181.154 55.1 181.354 55.24C181.56 55.38 181.727 55.52 181.854 55.66C181.98 55.7933 182.074 55.9333 182.134 56.08C182.194 56.2267 182.224 56.3933 182.224 56.58C182.224 57.0533 182.07 57.4267 181.764 57.7C181.457 57.9667 181.054 58.1 180.554 58.1C180.034 58.1 179.587 57.95 179.214 57.65L179.014 58ZM185.195 53.42H185.235C185.448 53.1667 185.678 52.9667 185.925 52.82C186.171 52.6733 186.458 52.6 186.785 52.6C187.165 52.6 187.511 52.67 187.825 52.81C188.145 52.9433 188.421 53.1333 188.655 53.38C188.888 53.6267 189.068 53.92 189.195 54.26C189.328 54.5933 189.395 54.96 189.395 55.36C189.395 55.7667 189.328 56.14 189.195 56.48C189.061 56.8133 188.878 57.1 188.645 57.34C188.411 57.58 188.135 57.7667 187.815 57.9C187.495 58.0333 187.148 58.1 186.775 58.1C186.468 58.1 186.188 58.05 185.935 57.95C185.688 57.8433 185.455 57.6733 185.235 57.44V58.9C185.235 59.1667 185.248 59.38 185.275 59.54C185.301 59.7 185.355 59.8233 185.435 59.91C185.515 59.9967 185.628 60.0567 185.775 60.09C185.928 60.1233 186.128 60.1433 186.375 60.15V60.5H183.295V60.15C183.495 60.1433 183.655 60.1233 183.775 60.09C183.901 60.0567 183.998 59.9967 184.065 59.91C184.138 59.8233 184.188 59.7033 184.215 59.55C184.241 59.4033 184.255 59.21 184.255 58.97V55.23C184.255 54.8433 184.248 54.5267 184.235 54.28C184.228 54.0333 184.211 53.8633 184.185 53.77C184.151 53.61 184.075 53.5033 183.955 53.45C183.835 53.39 183.608 53.36 183.275 53.36V53.02L185.195 52.64V53.42ZM185.495 53.71C185.408 53.8433 185.341 54.0033 185.295 54.19C185.255 54.37 185.235 54.6067 185.235 54.9V55.68C185.235 55.86 185.238 56.0167 185.245 56.15C185.258 56.2767 185.275 56.3867 185.295 56.48C185.315 56.5733 185.341 56.6567 185.375 56.73C185.408 56.8033 185.451 56.8733 185.505 56.94C185.658 57.1533 185.841 57.32 186.055 57.44C186.268 57.5533 186.491 57.61 186.725 57.61C187.185 57.61 187.555 57.4167 187.835 57.03C188.121 56.6433 188.265 56.1 188.265 55.4C188.265 55.0533 188.225 54.74 188.145 54.46C188.071 54.1733 187.965 53.93 187.825 53.73C187.685 53.5233 187.515 53.3633 187.315 53.25C187.121 53.1367 186.905 53.08 186.665 53.08C186.425 53.08 186.201 53.1367 185.995 53.25C185.795 53.3567 185.628 53.51 185.495 53.71ZM195.502 57.07C194.935 57.7567 194.232 58.1 193.392 58.1C192.998 58.1 192.642 58.0367 192.322 57.91C192.002 57.7767 191.725 57.5933 191.492 57.36C191.265 57.12 191.088 56.8367 190.962 56.51C190.835 56.1767 190.772 55.81 190.772 55.41C190.772 55.0033 190.838 54.6267 190.972 54.28C191.105 53.9333 191.292 53.6367 191.532 53.39C191.778 53.1433 192.068 52.95 192.402 52.81C192.742 52.67 193.112 52.6 193.512 52.6C194.158 52.6 194.658 52.7767 195.012 53.13C195.365 53.4767 195.542 53.9767 195.542 54.63C195.542 54.7233 195.522 54.78 195.482 54.8C195.448 54.82 195.365 54.83 195.232 54.83H191.942C191.928 54.8833 191.918 54.95 191.912 55.03C191.905 55.1033 191.902 55.1867 191.902 55.28C191.902 55.6267 191.942 55.9433 192.022 56.23C192.108 56.51 192.228 56.75 192.382 56.95C192.542 57.15 192.728 57.3067 192.942 57.42C193.162 57.5267 193.405 57.58 193.672 57.58C193.952 57.58 194.212 57.52 194.452 57.4C194.692 57.2733 194.938 57.07 195.192 56.79L195.502 57.07ZM193.852 54.37C193.985 54.37 194.092 54.3667 194.172 54.36C194.252 54.3533 194.312 54.34 194.352 54.32C194.392 54.3 194.418 54.2733 194.432 54.24C194.445 54.2 194.452 54.15 194.452 54.09C194.452 53.7833 194.352 53.54 194.152 53.36C193.958 53.1733 193.692 53.08 193.352 53.08C192.632 53.08 192.185 53.51 192.012 54.37H193.852ZM198.574 56.43C198.574 56.7033 198.581 56.92 198.594 57.08C198.608 57.2333 198.641 57.3533 198.694 57.44C198.754 57.52 198.838 57.5733 198.944 57.6C199.058 57.6267 199.211 57.6467 199.404 57.66V58H196.784V57.66C196.971 57.6467 197.118 57.6267 197.224 57.6C197.338 57.5733 197.424 57.52 197.484 57.44C197.544 57.36 197.581 57.2467 197.594 57.1C197.614 56.9533 197.624 56.7533 197.624 56.5V55.17C197.624 54.3767 197.604 53.8933 197.564 53.72C197.544 53.6333 197.518 53.5633 197.484 53.51C197.458 53.45 197.414 53.4067 197.354 53.38C197.294 53.3467 197.218 53.3267 197.124 53.32C197.031 53.3067 196.911 53.3 196.764 53.3V52.98L198.364 52.6L198.484 53.59H198.524C198.778 53.2767 199.074 53.0333 199.414 52.86C199.754 52.6867 200.124 52.6 200.524 52.6C200.831 52.6 201.111 52.65 201.364 52.75C201.618 52.85 201.811 52.9867 201.944 53.16C202.058 53.3133 202.138 53.5133 202.184 53.76C202.231 54 202.254 54.3333 202.254 54.76V56.43C202.254 56.7033 202.261 56.92 202.274 57.08C202.294 57.2333 202.331 57.3533 202.384 57.44C202.438 57.52 202.518 57.5733 202.624 57.6C202.738 57.6267 202.884 57.6467 203.064 57.66V58H200.474V57.66C200.661 57.6533 200.808 57.6367 200.914 57.61C201.028 57.5767 201.111 57.52 201.164 57.44C201.224 57.36 201.261 57.2467 201.274 57.1C201.294 56.9467 201.304 56.7467 201.304 56.5V55.18C201.304 54.8 201.284 54.48 201.244 54.22C201.204 53.96 201.138 53.75 201.044 53.59C200.958 53.43 200.841 53.3167 200.694 53.25C200.548 53.1767 200.371 53.14 200.164 53.14C199.864 53.14 199.588 53.22 199.334 53.38C199.088 53.5333 198.894 53.7467 198.754 54.02C198.721 54.0867 198.691 54.15 198.664 54.21C198.644 54.27 198.628 54.34 198.614 54.42C198.601 54.5 198.591 54.5933 198.584 54.7C198.578 54.8 198.574 54.93 198.574 55.09V56.43ZM208.549 57.16H208.509C208.269 57.5 208.012 57.7433 207.739 57.89C207.472 58.03 207.155 58.1 206.789 58.1C206.409 58.1 206.059 58.0333 205.739 57.9C205.425 57.76 205.152 57.57 204.919 57.33C204.692 57.0833 204.512 56.79 204.379 56.45C204.252 56.11 204.189 55.74 204.189 55.34C204.189 54.9467 204.252 54.5833 204.379 54.25C204.512 53.91 204.692 53.62 204.919 53.38C205.152 53.1333 205.429 52.9433 205.749 52.81C206.069 52.67 206.415 52.6 206.789 52.6C207.109 52.6 207.392 52.6533 207.639 52.76C207.892 52.8667 208.135 53.0367 208.369 53.27V52.25C208.369 51.87 208.362 51.5533 208.349 51.3C208.342 51.0467 208.329 50.8733 208.309 50.78C208.275 50.6333 208.182 50.53 208.029 50.47C207.875 50.41 207.625 50.38 207.279 50.38V50.08L209.329 49.7V55.47C209.329 55.93 209.332 56.31 209.339 56.61C209.345 56.9033 209.365 57.1133 209.399 57.24C209.419 57.32 209.442 57.3867 209.469 57.44C209.502 57.4933 209.545 57.5367 209.599 57.57C209.659 57.5967 209.735 57.6167 209.829 57.63C209.929 57.6433 210.055 57.65 210.209 57.65V57.99L208.549 58.1V57.16ZM208.349 54.95C208.349 54.6033 208.329 54.34 208.289 54.16C208.255 53.98 208.185 53.8233 208.079 53.69C207.925 53.49 207.729 53.34 207.489 53.24C207.255 53.1333 207.022 53.08 206.789 53.08C206.309 53.08 205.942 53.28 205.689 53.68C205.442 54.0733 205.319 54.61 205.319 55.29C205.319 55.6433 205.349 55.9633 205.409 56.25C205.475 56.5367 205.569 56.7833 205.689 56.99C205.815 57.19 205.969 57.3467 206.149 57.46C206.335 57.5667 206.549 57.62 206.789 57.62C206.909 57.62 207.029 57.6067 207.149 57.58C207.275 57.5533 207.395 57.5133 207.509 57.46C207.629 57.4 207.739 57.3333 207.839 57.26C207.939 57.18 208.022 57.09 208.089 56.99C208.182 56.8433 208.249 56.6667 208.289 56.46C208.329 56.2533 208.349 55.97 208.349 55.61V54.95ZM214.347 55.04C213.967 55.1867 213.644 55.33 213.377 55.47C213.117 55.61 212.907 55.75 212.747 55.89C212.587 56.03 212.47 56.17 212.397 56.31C212.33 56.45 212.297 56.5933 212.297 56.74C212.297 56.96 212.37 57.14 212.517 57.28C212.664 57.42 212.857 57.49 213.097 57.49C213.27 57.49 213.43 57.4467 213.577 57.36C213.73 57.2733 213.864 57.1567 213.977 57.01C214.09 56.8567 214.18 56.68 214.247 56.48C214.314 56.2733 214.347 56.0567 214.347 55.83V55.04ZM214.347 54.61V54.2C214.347 53.3867 214 52.98 213.307 52.98C213.194 52.98 213.097 52.99 213.017 53.01C212.937 53.03 212.87 53.0633 212.817 53.11C212.764 53.1567 212.714 53.2233 212.667 53.31C212.627 53.3967 212.587 53.5033 212.547 53.63C212.474 53.8233 212.4 53.9533 212.327 54.02C212.26 54.08 212.16 54.11 212.027 54.11C211.694 54.11 211.527 53.9433 211.527 53.61C211.527 53.29 211.697 53.0433 212.037 52.87C212.377 52.69 212.86 52.6 213.487 52.6C214.154 52.6 214.627 52.72 214.907 52.96C215.187 53.1933 215.327 53.5933 215.327 54.16V56.4C215.327 57.16 215.477 57.54 215.777 57.54C215.87 57.54 215.96 57.53 216.047 57.51C216.134 57.4833 216.207 57.42 216.267 57.32L216.407 57.56C216.327 57.7133 216.18 57.8433 215.967 57.95C215.754 58.05 215.53 58.1 215.297 58.1C215.004 58.1 214.784 58.0067 214.637 57.82C214.497 57.6333 214.427 57.37 214.427 57.03H214.377C214.204 57.3567 213.964 57.6167 213.657 57.81C213.35 57.9967 213.01 58.09 212.637 58.09C212.217 58.09 211.887 57.9833 211.647 57.77C211.407 57.5567 211.287 57.27 211.287 56.91C211.287 56.75 211.314 56.5967 211.367 56.45C211.427 56.3033 211.52 56.1633 211.647 56.03C211.774 55.8967 211.94 55.7667 212.147 55.64C212.354 55.5067 212.607 55.3733 212.907 55.24L214.347 54.61ZM219.534 55.85C219.814 55.85 220.031 55.7233 220.184 55.47C220.344 55.2167 220.424 54.86 220.424 54.4C220.424 53.9467 220.344 53.5967 220.184 53.35C220.031 53.0967 219.811 52.97 219.524 52.97C219.237 52.97 219.007 53.0967 218.834 53.35C218.667 53.6033 218.584 53.95 218.584 54.39C218.584 54.83 218.671 55.1833 218.844 55.45C219.017 55.7167 219.247 55.85 219.534 55.85ZM218.984 57.02C219.144 57.0333 219.291 57.0467 219.424 57.06C219.557 57.0733 219.687 57.0867 219.814 57.1C219.947 57.1133 220.077 57.13 220.204 57.15C220.337 57.17 220.481 57.19 220.634 57.21C221.114 57.2833 221.497 57.47 221.784 57.77C222.077 58.0633 222.224 58.4333 222.224 58.88C222.224 59.44 222.001 59.8667 221.554 60.16C221.114 60.4533 220.474 60.6 219.634 60.6C219.261 60.6 218.917 60.5667 218.604 60.5C218.297 60.4333 218.034 60.3367 217.814 60.21C217.594 60.09 217.421 59.9433 217.294 59.77C217.174 59.5967 217.114 59.4067 217.114 59.2C217.114 59.06 217.137 58.93 217.184 58.81C217.231 58.69 217.294 58.5833 217.374 58.49C217.454 58.4033 217.547 58.3333 217.654 58.28C217.767 58.2267 217.884 58.2 218.004 58.2C218.231 58.2 218.434 58.27 218.614 58.41C218.434 58.45 218.287 58.5467 218.174 58.7C218.061 58.86 218.004 59.04 218.004 59.24C218.004 59.5333 218.147 59.76 218.434 59.92C218.727 60.08 219.141 60.16 219.674 60.16C220.814 60.16 221.384 59.81 221.384 59.11C221.384 58.8433 221.294 58.62 221.114 58.44C220.934 58.2667 220.721 58.1633 220.474 58.13C220.314 58.11 220.147 58.0867 219.974 58.06C219.807 58.04 219.641 58.02 219.474 58C219.314 57.98 219.164 57.9633 219.024 57.95C218.884 57.9367 218.771 57.9233 218.684 57.91C218.311 57.87 218.027 57.77 217.834 57.61C217.641 57.45 217.544 57.23 217.544 56.95C217.544 56.7167 217.641 56.51 217.834 56.33C218.027 56.15 218.271 56.0367 218.564 55.99V55.95C218.417 55.89 218.281 55.8067 218.154 55.7C218.027 55.5867 217.917 55.46 217.824 55.32C217.737 55.18 217.667 55.03 217.614 54.87C217.561 54.7033 217.534 54.5333 217.534 54.36C217.534 54.1067 217.581 53.8733 217.674 53.66C217.774 53.4467 217.911 53.2633 218.084 53.11C218.264 52.95 218.474 52.8267 218.714 52.74C218.954 52.6467 219.217 52.6 219.504 52.6C219.797 52.6 220.074 52.6467 220.334 52.74C220.594 52.8267 220.817 52.9567 221.004 53.13C221.231 52.9433 221.431 52.81 221.604 52.73C221.777 52.6433 221.941 52.6 222.094 52.6C222.334 52.6 222.524 52.6567 222.664 52.77C222.811 52.8767 222.884 53.0233 222.884 53.21C222.884 53.3233 222.844 53.4133 222.764 53.48C222.691 53.5467 222.597 53.58 222.484 53.58C222.391 53.58 222.314 53.5633 222.254 53.53C222.194 53.4967 222.137 53.4633 222.084 53.43C222.037 53.39 221.987 53.3533 221.934 53.32C221.881 53.2867 221.814 53.27 221.734 53.27C221.574 53.27 221.411 53.3267 221.244 53.44C221.404 53.6867 221.484 53.9967 221.484 54.37C221.484 54.9367 221.307 55.3833 220.954 55.71C220.601 56.03 220.071 56.2167 219.364 56.27C218.957 56.3033 218.674 56.3467 218.514 56.4C218.354 56.4533 218.274 56.55 218.274 56.69C218.274 56.7967 218.334 56.8767 218.454 56.93C218.574 56.9767 218.751 57.0067 218.984 57.02ZM228.351 57.07C227.785 57.7567 227.081 58.1 226.241 58.1C225.848 58.1 225.491 58.0367 225.171 57.91C224.851 57.7767 224.575 57.5933 224.341 57.36C224.115 57.12 223.938 56.8367 223.811 56.51C223.685 56.1767 223.621 55.81 223.621 55.41C223.621 55.0033 223.688 54.6267 223.821 54.28C223.955 53.9333 224.141 53.6367 224.381 53.39C224.628 53.1433 224.918 52.95 225.251 52.81C225.591 52.67 225.961 52.6 226.361 52.6C227.008 52.6 227.508 52.7767 227.861 53.13C228.215 53.4767 228.391 53.9767 228.391 54.63C228.391 54.7233 228.371 54.78 228.331 54.8C228.298 54.82 228.215 54.83 228.081 54.83H224.791C224.778 54.8833 224.768 54.95 224.761 55.03C224.755 55.1033 224.751 55.1867 224.751 55.28C224.751 55.6267 224.791 55.9433 224.871 56.23C224.958 56.51 225.078 56.75 225.231 56.95C225.391 57.15 225.578 57.3067 225.791 57.42C226.011 57.5267 226.255 57.58 226.521 57.58C226.801 57.58 227.061 57.52 227.301 57.4C227.541 57.2733 227.788 57.07 228.041 56.79L228.351 57.07ZM226.701 54.37C226.835 54.37 226.941 54.3667 227.021 54.36C227.101 54.3533 227.161 54.34 227.201 54.32C227.241 54.3 227.268 54.2733 227.281 54.24C227.295 54.2 227.301 54.15 227.301 54.09C227.301 53.7833 227.201 53.54 227.001 53.36C226.808 53.1733 226.541 53.08 226.201 53.08C225.481 53.08 225.035 53.51 224.861 54.37H226.701ZM230.514 55.63V53.34H230.804C231.671 53.34 232.104 53.01 232.104 52.35C232.104 52.19 232.081 52.04 232.034 51.9C231.987 51.76 231.924 51.6367 231.844 51.53C231.771 51.4233 231.681 51.34 231.574 51.28C231.467 51.22 231.354 51.19 231.234 51.19C231.114 51.19 230.987 51.21 230.854 51.25C230.721 51.2833 230.597 51.3 230.484 51.3C230.331 51.3 230.204 51.25 230.104 51.15C230.004 51.05 229.954 50.92 229.954 50.76C229.954 50.3867 230.161 50.2 230.574 50.2C230.847 50.2 231.111 50.27 231.364 50.41C231.617 50.5433 231.841 50.7267 232.034 50.96C232.227 51.1867 232.381 51.4533 232.494 51.76C232.614 52.06 232.674 52.3733 232.674 52.7C232.674 53.2067 232.534 53.6 232.254 53.88C231.974 54.16 231.577 54.3 231.064 54.3V55.63H230.514ZM230.104 57.45C230.104 57.2633 230.167 57.1067 230.294 56.98C230.421 56.8533 230.574 56.79 230.754 56.79C230.941 56.79 231.097 56.8533 231.224 56.98C231.351 57.1067 231.414 57.2633 231.414 57.45C231.414 57.63 231.351 57.7833 231.224 57.91C231.097 58.0367 230.941 58.1 230.754 58.1C230.574 58.1 230.421 58.0367 230.294 57.91C230.167 57.7833 230.104 57.63 230.104 57.45Z" fill="black"/>
<path d="M33.072 116.12C33.072 115.821 33.1733 115.571 33.376 115.368C33.5787 115.165 33.824 115.064 34.112 115.064C34.4107 115.064 34.6613 115.165 34.864 115.368C35.0667 115.571 35.168 115.821 35.168 116.12C35.168 116.408 35.0667 116.653 34.864 116.856C34.6613 117.059 34.4107 117.16 34.112 117.16C33.824 117.16 33.5787 117.059 33.376 116.856C33.1733 116.653 33.072 116.408 33.072 116.12ZM37.9464 116.12C37.9464 115.821 38.0477 115.571 38.2504 115.368C38.453 115.165 38.6984 115.064 38.9864 115.064C39.285 115.064 39.5357 115.165 39.7384 115.368C39.941 115.571 40.0424 115.821 40.0424 116.12C40.0424 116.408 39.941 116.653 39.7384 116.856C39.5357 117.059 39.285 117.16 38.9864 117.16C38.6984 117.16 38.453 117.059 38.2504 116.856C38.0477 116.653 37.9464 116.408 37.9464 116.12ZM42.8207 116.12C42.8207 115.821 42.9221 115.571 43.1247 115.368C43.3274 115.165 43.5727 115.064 43.8607 115.064C44.1594 115.064 44.4101 115.165 44.6127 115.368C44.8154 115.571 44.9167 115.821 44.9167 116.12C44.9167 116.408 44.8154 116.653 44.6127 116.856C44.4101 117.059 44.1594 117.16 43.8607 117.16C43.5727 117.16 43.3274 117.059 43.1247 116.856C42.9221 116.653 42.8207 116.408 42.8207 116.12Z" fill="white"/>
</svg>
