<svg width="279" height="177" viewBox="0 0 279 177" fill="none" xmlns="http://www.w3.org/2000/svg">
<rect x="0.5" y="0.5" width="278" height="170" rx="29.5" fill="white" stroke="#E4E4E4"/>
<circle cx="161" cy="116" r="20" transform="rotate(-14 161 116)" fill="#DADADA"/>
<g clip-path="url(#clip0_66_1228)">
<path d="M161.484 117.94L162.452 121.822" stroke="#1A1A23" stroke-width="1.5" stroke-linecap="round"/>
<path d="M154.694 115.511L154.211 113.57C154.128 113.24 154.075 112.909 154.049 112.58M166.338 112.608L165.854 110.667C165.052 107.452 161.796 105.495 158.581 106.297C156.842 106.731 155.471 107.882 154.706 109.357" stroke="#1A1A23" stroke-width="1.5" stroke-linecap="round"/>
<path d="M162.449 125.945L159.538 126.671C156.794 127.355 155.421 127.697 154.356 127.057C153.291 126.417 152.949 125.045 152.265 122.3C151.581 119.556 151.238 118.184 151.878 117.119C152.518 116.053 153.891 115.711 156.635 115.027L164.397 113.092C167.142 112.407 168.514 112.065 169.579 112.705C170.644 113.345 170.986 114.717 171.671 117.462C172.355 120.206 172.697 121.578 172.057 122.644C171.417 123.709 170.045 124.051 167.3 124.735L166.33 124.977" stroke="#1A1A23" stroke-width="1.5" stroke-linecap="round"/>
</g>
<circle cx="74.0001" cy="150" r="20" transform="rotate(-24 74.0001 150)" fill="#DADADA"/>
<g clip-path="url(#clip1_66_1228)">
<path d="M74.8137 151.827L76.4407 155.481" stroke="#1A1A23" stroke-width="1.5" stroke-linecap="round"/>
<path d="M67.7056 150.614L66.8921 148.786C66.7535 148.475 66.6436 148.158 66.5611 147.839M78.6681 145.733L77.8546 143.906C76.5068 140.878 72.9601 139.517 69.9329 140.865C68.2959 141.594 67.1459 142.966 66.6482 144.551" stroke="#1A1A23" stroke-width="1.5" stroke-linecap="round"/>
<path d="M77.154 159.543L74.4134 160.763C71.8295 161.913 70.5375 162.488 69.3774 162.043C68.2173 161.598 67.6421 160.306 66.4917 157.722C65.3413 155.138 64.7661 153.846 65.2114 152.686C65.6567 151.526 66.9486 150.951 69.5325 149.8L76.8409 146.546C79.4248 145.396 80.7167 144.821 81.8768 145.266C83.037 145.711 83.6122 147.003 84.7626 149.587C85.913 152.171 86.4882 153.463 86.0429 154.623C85.5976 155.783 84.3056 156.359 81.7217 157.509L80.8082 157.916" stroke="#1A1A23" stroke-width="1.5" stroke-linecap="round"/>
</g>
<circle cx="108" cy="129" r="20" fill="#DADADA"/>
<path d="M108 131V135" stroke="#1A1A23" stroke-width="1.5" stroke-linecap="round"/>
<path d="M102 127V125C102 124.659 102.028 124.325 102.083 124M114 127V125C114 121.686 111.314 119 108 119C106.208 119 104.599 119.786 103.5 121.031" stroke="#1A1A23" stroke-width="1.5" stroke-linecap="round"/>
<path d="M107 139H104C101.172 139 99.7574 139 98.8787 138.121C98 137.243 98 135.828 98 133C98 130.172 98 128.757 98.8787 127.879C99.7574 127 101.172 127 104 127H112C114.828 127 116.243 127 117.121 127.879C118 128.757 118 130.172 118 133C118 135.828 118 137.243 117.121 138.121C116.243 139 114.828 139 112 139H111" stroke="#1A1A23" stroke-width="1.5" stroke-linecap="round"/>
<circle cx="141.882" cy="149.882" r="20" transform="rotate(9 141.882 149.882)" fill="#DADADA"/>
<g clip-path="url(#clip2_66_1228)">
<path d="M141.569 151.857L140.944 155.808" stroke="#1A1A23" stroke-width="1.5" stroke-linecap="round"/>
<path d="M136.269 146.968L136.582 144.993C136.635 144.657 136.716 144.331 136.82 144.018M148.121 148.846L148.434 146.87C148.953 143.597 146.72 140.524 143.447 140.006C141.677 139.725 139.965 140.249 138.684 141.308" stroke="#1A1A23" stroke-width="1.5" stroke-linecap="round"/>
<path d="M139.33 159.602L136.367 159.133C133.574 158.691 132.177 158.469 131.446 157.464C130.716 156.459 130.937 155.062 131.38 152.268C131.822 149.475 132.043 148.078 133.049 147.348C134.054 146.617 135.451 146.838 138.244 147.281L146.146 148.532C148.94 148.975 150.336 149.196 151.067 150.201C151.797 151.207 151.576 152.604 151.134 155.397C150.691 158.191 150.47 159.587 149.464 160.318C148.459 161.048 147.062 160.827 144.269 160.385L143.281 160.228" stroke="#1A1A23" stroke-width="1.5" stroke-linecap="round"/>
</g>
<circle cx="181.634" cy="149.634" r="20" transform="rotate(20 181.634 149.634)" fill="#DADADA"/>
<g clip-path="url(#clip3_66_1228)">
<path d="M180.95 151.514L179.582 155.272" stroke="#1A1A23" stroke-width="1.5" stroke-linecap="round"/>
<path d="M176.68 145.703L177.364 143.824C177.481 143.504 177.622 143.199 177.784 142.912M187.956 149.807L188.64 147.928C189.774 144.814 188.168 141.371 185.054 140.238C183.37 139.625 181.59 139.813 180.131 140.607" stroke="#1A1A23" stroke-width="1.5" stroke-linecap="round"/>
<path d="M177.274 158.689L174.455 157.663C171.797 156.696 170.468 156.212 169.943 155.086C169.418 153.96 169.902 152.631 170.869 149.973C171.837 147.315 172.32 145.986 173.446 145.461C174.573 144.936 175.902 145.42 178.559 146.387L186.077 149.123C188.735 150.091 190.064 150.574 190.589 151.701C191.114 152.827 190.63 154.156 189.663 156.814C188.696 159.471 188.212 160.8 187.086 161.325C185.959 161.851 184.631 161.367 181.973 160.4L181.033 160.058" stroke="#1A1A23" stroke-width="1.5" stroke-linecap="round"/>
</g>
<circle cx="221" cy="150" r="20" transform="rotate(-15 221 150)" fill="#DADADA"/>
<g clip-path="url(#clip4_66_1228)">
<path d="M221.518 151.932L222.553 155.795" stroke="#1A1A23" stroke-width="1.5" stroke-linecap="round"/>
<path d="M214.687 149.621L214.169 147.689C214.081 147.36 214.022 147.03 213.99 146.702M226.278 146.515L225.76 144.583C224.903 141.382 221.613 139.483 218.412 140.341C216.681 140.804 215.33 141.98 214.591 143.467" stroke="#1A1A23" stroke-width="1.5" stroke-linecap="round"/>
<path d="M222.622 159.918L219.725 160.694C216.992 161.426 215.626 161.793 214.55 161.171C213.474 160.55 213.108 159.184 212.376 156.452C211.644 153.72 211.278 152.354 211.899 151.278C212.521 150.201 213.887 149.835 216.619 149.103L224.346 147.033C227.078 146.301 228.444 145.935 229.52 146.556C230.596 147.177 230.963 148.543 231.695 151.275C232.427 154.007 232.793 155.373 232.171 156.45C231.55 157.526 230.184 157.892 227.452 158.624L226.486 158.883" stroke="#1A1A23" stroke-width="1.5" stroke-linecap="round"/>
</g>
<circle cx="128" cy="95.9998" r="20" transform="rotate(15 128 95.9998)" fill="#FF7E61"/>
<g clip-path="url(#clip5_66_1228)">
<path d="M127.482 97.9321L126.447 101.796" stroke="#1A1A23" stroke-width="1.5" stroke-linecap="round"/>
<path d="M124.446 105.401L121.548 104.624C118.816 103.892 117.45 103.526 116.829 102.45C116.207 101.374 116.573 100.008 117.305 97.276C118.038 94.544 118.404 93.178 119.48 92.5566C120.556 91.9353 121.922 92.3013 124.654 93.0334L132.381 95.1039C135.113 95.836 136.479 96.202 137.101 97.2782C137.722 98.3544 137.356 99.7204 136.624 102.452C135.892 105.184 135.526 106.55 134.45 107.172C133.374 107.793 132.008 107.427 129.276 106.695L128.31 106.436" stroke="#1A1A23" stroke-width="1.5" stroke-linecap="round"/>
<path d="M122.722 92.5155L123.24 90.5836C123.328 90.2545 123.442 89.9392 123.579 89.6392M135.036 92.1917C135.063 89.5196 133.289 87.0646 130.588 86.341C128.872 85.8811 127.13 86.214 125.751 87.1154" stroke="#1A1A23" stroke-width="1.5" stroke-linecap="round"/>
</g>
<defs>
<clipPath id="clip0_66_1228">
<rect width="24" height="24" fill="white" transform="translate(146.453 107.26) rotate(-14)"/>
</clipPath>
<clipPath id="clip1_66_1228">
<rect width="24" height="24" fill="white" transform="translate(58.1567 143.918) rotate(-24)"/>
</clipPath>
<clipPath id="clip2_66_1228">
<rect width="24" height="24" fill="white" transform="translate(131.907 136.153) rotate(9)"/>
</clipPath>
<clipPath id="clip3_66_1228">
<rect width="24" height="24" fill="white" transform="translate(174.462 134.254) rotate(20)"/>
</clipPath>
<clipPath id="clip4_66_1228">
<rect width="24" height="24" fill="white" transform="translate(206.303 141.515) rotate(-15)"/>
</clipPath>
<clipPath id="clip5_66_1228">
<rect width="24" height="24" fill="white" transform="translate(119.515 81.3032) rotate(15)"/>
</clipPath>
</defs>
</svg>
